<svg xmlns="http://www.w3.org/2000/svg" width="97.3039" height="107.0343" viewBox="0 0 97.3039 107.0343"><defs><style>.cls-1{fill:#e515aa;}</style></defs><title>icon1</title><g id="Layer_2" data-name="Layer 2"><g id="Layer_1-2" data-name="Layer 1"><circle class="cls-1" cx="9.7304" cy="56.4363" r="1.9461"/><circle class="cls-1" cx="9.7304" cy="68.1128" r="1.9461"/><circle class="cls-1" cx="15.5686" cy="62.2745" r="1.9461"/><circle class="cls-1" cx="27.2451" cy="62.2745" r="1.9461"/><circle class="cls-1" cx="21.4069" cy="68.1128" r="1.9461"/><circle class="cls-1" cx="33.0833" cy="68.1128" r="1.9461"/><circle class="cls-1" cx="38.9216" cy="62.2745" r="1.9461"/><circle class="cls-1" cx="50.598" cy="62.2745" r="1.9461"/><circle class="cls-1" cx="44.7598" cy="68.1128" r="1.9461"/><circle class="cls-1" cx="56.4363" cy="68.1128" r="1.9461"/><circle class="cls-1" cx="62.2745" cy="62.2745" r="1.9461"/><circle class="cls-1" cx="73.951" cy="62.2745" r="1.9461"/><circle class="cls-1" cx="68.1128" cy="68.1128" r="1.9461"/><circle class="cls-1" cx="79.7892" cy="68.1128" r="1.9461"/><circle class="cls-1" cx="85.6275" cy="62.2745" r="1.9461"/><circle class="cls-1" cx="91.4657" cy="56.4363" r="1.9461"/><circle class="cls-1" cx="27.2451" cy="73.951" r="1.9461"/><circle class="cls-1" cx="38.9216" cy="73.951" r="1.9461"/><circle class="cls-1" cx="50.598" cy="73.951" r="1.9461"/><circle class="cls-1" cx="62.2745" cy="73.951" r="1.9461"/><circle class="cls-1" cx="73.951" cy="73.951" r="1.9461"/><path class="cls-1" d="M97.1677,16.8375a1.4882,1.4882,0,0,0-.0564-.14c-.0195-.0409-.0292-.0857-.0506-.1246C94.6884,7.0818,74.1592,0,48.652,0S2.6155,7.0818.2433,16.5728c-.0214.0389-.0312.0837-.0506.1246-.0214.0467-.039.0914-.0565.14A1.909,1.909,0,0,0,0,17.5147V89.52a1.83,1.83,0,0,0,.2277.8777c2.2983,9.5261,22.8606,16.637,48.4243,16.637,25.5053,0,46.0345-7.0818,48.4087-16.5728a1.9218,1.9218,0,0,0,.2432-.9419V17.5147A1.909,1.909,0,0,0,97.1677,16.8375Zm-10.31,55.64a1.9076,1.9076,0,0,0-1.23-.4729,1.9468,1.9468,0,0,0-1.9461,1.9461c0,.0214.0117.0389.0117.06a69.4575,69.4575,0,0,1-14.6813,4.0809,1.8861,1.8861,0,0,0-.899-.2491,1.9242,1.9242,0,0,0-1.4285.6481c-2.6408.4009-5.4393.7181-8.374.938a1.9109,1.9109,0,0,0-3.7909.216c-1.913.0856-3.8571.144-5.8674.144-.6636,0-1.3-.0253-1.9539-.035a1.93,1.93,0,0,0-3.8552-.1051c-2.76-.1226-5.4276-.3192-7.9614-.6013a1.9482,1.9482,0,0,0-1.7982-1.2047,1.9113,1.9113,0,0,0-1.514.7746,81.2176,81.2176,0,0,1-14.59-3.3434,1.9412,1.9412,0,1,0-3.3569-1.3233c0,.0253.0136.0447.0136.07-6.2022-2.6174-9.744-5.7973-9.744-8.8274a4.1566,4.1566,0,0,1,.06-.6577,2.0233,2.0233,0,0,0-.0175-.325,1.9414,1.9414,0,0,0-.0428-3.8825V52.5441A1.93,1.93,0,0,0,5.809,50.7382,45.052,45.052,0,0,0,19.5231,56.75a1.8892,1.8892,0,0,0,3.39.8679A115.6864,115.6864,0,0,0,48.652,60.3284,110.6059,110.6059,0,0,0,77.9,56.72a1.9229,1.9229,0,0,0,1.89,1.662,1.9468,1.9468,0,0,0,1.9461-1.9461A1.9186,1.9186,0,0,0,81.529,55.6c5.0987-1.75,9.1505-3.9214,11.8828-6.3812V63.67a1.94,1.94,0,0,0-.06.866,3.9339,3.9339,0,0,1,.06.6577,4.4475,4.4475,0,0,1-.43,1.7515,1.9075,1.9075,0,0,0-1.516-.7784,1.9416,1.9416,0,0,0-.7862,3.7189A20.8224,20.8224,0,0,1,86.8574,72.4778Zm6.5544-30.1564a1.7056,1.7056,0,0,0-.0623.1771C92.2461,49.23,74.021,56.4363,48.652,56.4363S5.0579,49.23,3.9544,42.4985c-.01-.0643-.0467-.1149-.0622-.1771V25.8206c6.677,6.1554,21.8817,11.1549,44.76,11.1549s38.0828-4.9995,44.76-11.1549ZM48.652,3.8922c25.3729,0,43.596,7.2063,44.6975,13.9358l.0019.0117a4.0261,4.0261,0,0,1,.06.648c0,6.9047-18.3807,14.5956-44.76,14.5956s-44.76-7.6909-44.76-14.5956a4.0373,4.0373,0,0,1,.06-.648l.0019-.0117C5.0559,11.0985,23.279,3.8922,48.652,3.8922ZM93.35,89.2044c-1.1034,6.7314-19.3285,13.9378-44.6975,13.9378S5.0579,95.9358,3.9544,89.2044a2.11,2.11,0,0,0-.0622-.255V72.5265c6.677,6.1554,21.8817,11.1549,44.76,11.1549s38.0828-4.9995,44.76-11.1549V88.9416A1.9817,1.9817,0,0,0,93.35,89.2044Z"/></g></g></svg>