<svg xmlns="http://www.w3.org/2000/svg" width="117.2423" height="117.2423" viewBox="0 0 117.2423 117.2423"><defs><style>.cls-1{fill:#e515aa;}</style></defs><title>icon2</title><g id="Layer_2" data-name="Layer 2"><g id="Layer_1-2" data-name="Layer 1"><path class="cls-1" d="M58.6211,0A58.37,58.37,0,0,0,19.7435,14.7984a2.1743,2.1743,0,0,0-.244.1729,2.2133,2.2133,0,0,0-.1945.207A58.59,58.59,0,1,0,58.6211,0Zm54.101,56.3894H93.1065A34.6062,34.6062,0,0,0,60.8529,24.1366V4.52A54.2152,54.2152,0,0,1,112.7221,56.3894ZM56.3894,24.1366A34.3846,34.3846,0,0,0,36.998,31.684L24.1327,16.897A53.9,53.9,0,0,1,56.3894,4.52ZM58.6211,28.52A30.1017,30.1017,0,1,1,28.52,58.6211,30.1359,30.1359,0,0,1,58.6211,28.52Zm0,84.2586A54.1213,54.1213,0,0,1,20.82,19.89L33.7064,34.7009a34.5519,34.5519,0,1,0,59.4,26.152h19.6156A54.2166,54.2166,0,0,1,58.6211,112.7788Z"/></g></g></svg>