<svg xmlns="http://www.w3.org/2000/svg" width="8.589" height="18.4676" viewBox="0 0 8.589 18.4676"><defs><style>.cls-1{fill:#e515aa;}</style></defs><title>facebook</title><g id="Layer_2" data-name="Layer 2"><g id="Layer_1-2" data-name="Layer 1"><path class="cls-1" d="M0,6.0737V9.2681H1.912v9.2H5.7131V9.2564c.7759,0,1.5042-.01,2.2319.0052.2565.0053.3419-.0767.3514-.3337.0135-.3688.0781-.7356.1162-1.1037.0592-.5711.1144-1.1425.1764-1.7645H5.701c0-.5037-.0006-.96,0-1.4162,0-.1605-.0046-.3219.0086-.4815.0552-.6719.3342-.9383,1.0166-.9661.2714-.011.5435-.004.8153-.0044q.5106-.0008,1.02,0V.0048c-.8568,0-1.694-.014-2.53.0058A8.4763,8.4763,0,0,0,4.7447.1391,3.11,3.11,0,0,0,1.9817,3.11c-.0777.8461-.0581,1.7012-.0812,2.5522-.0036.13-.0005.2606-.0005.4118Z"/></g></g></svg>