<svg xmlns="http://www.w3.org/2000/svg" width="189.4502" height="30.707" viewBox="0 0 189.4502 30.707"><defs><style>.cls-1{fill:#e515aa;}</style></defs><title>logo_bold</title><g id="Layer_2" data-name="Layer 2"><g id="Layer_1-2" data-name="Layer 1"><path class="cls-1" d="M66.2183,23.5371H66.19a1.63,1.63,0,0,0-.1923.0147,1.1924,1.1924,0,0,0-.1768.0136.7033.7033,0,0,1-.53-.1816,1.8249,1.8249,0,0,1-.3169-1.2588l-.0009-3.835c-.001-3.9057.0268-8.4775.0537-10.7993V7.3779a2.2988,2.2988,0,0,0-2.5059-2.5893c-.126,0-.2871.0068-.4521.0136s-.337.0147-.4781.0147a1.0869,1.0869,0,0,0-1.124,1.0967.9781.9781,0,0,0,1.0391.9824l.0825-.0015a3.303,3.303,0,0,1,.4253-.0278c.8291,0,.8784.12.8789,2.147,0,.8437-.0073,1.7851-.0142,2.6958-.0063.8208-.0122,1.6172-.0127,2.2954A5.9679,5.9679,0,0,0,58.292,11.979a6.5731,6.5731,0,0,0-6.6489,6.9341C51.644,23.0273,54.3789,25.9,58.2949,25.9h.001a6.101,6.101,0,0,0,4.7358-2.2481,2.56,2.56,0,0,0,2.793,2.0772c.8623,0,1.3774-.42,1.3774-1.1245A1,1,0,0,0,66.2183,23.5371Zm-3.3526-4.6265c.001,2.8614-1.8979,4.9385-4.5146,4.94h-.002a4.3654,4.3654,0,0,1-3.27-1.31,5.1591,5.1591,0,0,1-1.271-3.6279c-.001-3.0161,1.7818-4.9658,4.542-4.9668h.002A4.3434,4.3434,0,0,1,61.5547,15.29,5.1539,5.1539,0,0,1,62.8657,18.9106Z"/><path class="cls-1" d="M80.9048,23.6616c-.9522-.3335-1.1577-.8471-1.1577-2.894-.001-1.0972.0576-2.5459.1386-3.4429a7.8433,7.8433,0,0,0,.03-.814c-.0009-3.0283-1.5659-4.5634-4.6509-4.5634-2.5444.0009-5.0419,1.2563-5.0419,2.5346a1.0147,1.0147,0,0,0,1.039,1.0113,1.0288,1.0288,0,0,0,.7764-.3623,4.1738,4.1738,0,0,1,3.1152-1.274c1.83,0,2.6821.7984,2.6821,2.5137,0,.064-.0063.1343-.0126.2041a2.1833,2.1833,0,0,0-.0118.2666c-.0039.0039-.0444.0381-.2451.0718a45.6549,45.6549,0,0,0-5.249,1.1645c-2,.6221-3.1934,2.0181-3.1924,3.7354,0,2.0351,1.8023,4.1406,4.8184,4.1406a5.5776,5.5776,0,0,0,4.3408-2.063A2.6412,2.6412,0,0,0,80.54,25.6411h.0019a1.0165,1.0165,0,0,0,1.0112-1.04A.9655.9655,0,0,0,80.9048,23.6616ZM77.78,18.9077v.3662c.001,4.0742-2.4219,4.6841-3.8657,4.6851-1.732,0-2.7666-1.0767-2.7666-2.1177-.001-1.68,1.9316-2.26,6.5156-2.9946l.1079-.021A.2344.2344,0,0,1,77.78,18.9077Z"/><path class="cls-1" d="M90.4644,23.8423l-.2129.0088a3.8623,3.8623,0,0,1-.6914.0478c-1.9136,0-2.0035-1.1806-2.0044-3.4428,0-1.2144.0283-2.7056.0522-3.95.0171-.8955.0317-1.6641.0317-2.1123,0-.0455,0-.0987.002-.1368a1.778,1.778,0,0,1,.1992-.0078h2.481a.9835.9835,0,0,0,1.04-1.0122.9716.9716,0,0,0-.28-.6938,1.0441,1.0441,0,0,0-.7578-.2886H87.8125c-.06,0-.1255,0-.1729-.002,0-.0141-.0009-.0312-.0009-.0517,0,0,.0561-2.2608.0561-3.08a1.0692,1.0692,0,1,0-2.1357-.0273V9.77c0,.7359-.0156,1.6758-.0239,2.1514l-.0044.3032v.03c-.0157,0-.0352.001-.0586.001H83.8369a.9982.9982,0,1,0,0,1.9946H85.5l.03.0005c.001.0151.0019.0347.0019.0591v.4511c0,.6358-.0117,1.7081-.0239,2.8555-.0146,1.3462-.03,2.7964-.03,3.7705a6.28,6.28,0,0,0,.4771,2.7324A3.4193,3.4193,0,0,0,89.3364,25.95h.0015c.7685,0,2.0547-.002,2.0547-1.1255A.9505.9505,0,0,0,90.4644,23.8423Z"/><path class="cls-1" d="M105.377,23.6558c-.9522-.3335-1.1578-.8472-1.1578-2.8936-.0009-1.0976.0577-2.5464.1387-3.4429a7.8567,7.8567,0,0,0,.03-.8144c-.001-3.0283-1.5659-4.5635-4.6509-4.5635-2.5444.001-5.042,1.2568-5.042,2.5352a1.0143,1.0143,0,0,0,1.0391,1.0107,1.0291,1.0291,0,0,0,.7764-.3623,4.175,4.175,0,0,1,3.1152-1.2734c1.83,0,2.6821.7983,2.6821,2.5141.0005.0645-.0063.1353-.0127.2066a2.1539,2.1539,0,0,0-.0117.2636c-.0039.0039-.0444.0381-.2451.0713a45.8512,45.8512,0,0,0-5.249,1.1646c-2,.622-3.1934,2.0185-3.1924,3.7358,0,2.0352,1.8022,4.1406,4.8188,4.1406a5.5778,5.5778,0,0,0,4.34-2.0634,2.6435,2.6435,0,0,0,2.2568,1.7509h.001a1.0166,1.0166,0,0,0,1.0112-1.0405A.9668.9668,0,0,0,105.377,23.6558Zm-3.125-4.7539v.3667c.0009,4.0742-2.4219,4.684-3.8658,4.685-1.7319,0-2.7666-1.0766-2.7666-2.1177-.0009-1.6806,1.9317-2.26,6.5161-2.9946l.1075-.0215A.2348.2348,0,0,1,102.252,18.9019Z"/><path class="cls-1" d="M114.9375,18.3662c-.5781-.2983-1.36-.644-2.0508-.9487-.3638-.1607-.7031-.31-.9717-.4351a1.9542,1.9542,0,0,1-1.2417-1.6347c0-.773.6988-1.5557,2.0342-1.5557a3.49,3.49,0,0,1,1.3042.2612,1.7591,1.7591,0,0,1,1.1245,1.7437.9726.9726,0,0,0,1.04.9829,1.0859,1.0859,0,0,0,.7065-.2925.8732.8732,0,0,0,.2481-.6338v-.0674c-.0284-.643-.0284-1.0639-.0284-1.4555,0-.42,0-.8111.0279-1.3985l.0005-.039a.9133.9133,0,0,0-.9566-.9273.8778.8778,0,0,0-.8843.6221.49.49,0,0,0-.02.09,4.9632,4.9632,0,0,0-2.5356-.7392c-2.6812.001-4.084,1.7583-4.084,3.4931a3.6562,3.6562,0,0,0,2.4389,3.36c3.3233,1.375,4.358,2.0088,4.358,3.2925,0,1.2485-1.3238,1.9218-2.5689,1.9218-1.5332,0-2.7676-.8808-2.7676-1.61a1.2933,1.2933,0,0,1,.0249-.2266,1.8113,1.8113,0,0,0,.0318-.309,1.0255,1.0255,0,0,0-2.05-.0274l.0234.5869c.0181.3921.0322.6919.0322.9917,0,.31-.0151.6206-.0337,1.0108l-.0209.5122a.9269.9269,0,0,0,.9824.9262.8126.8126,0,0,0,.91-.7846,4.77,4.77,0,0,0,2.8687.8965c3.4512-.001,4.7036-2.3257,4.7036-3.8882A4.31,4.31,0,0,0,114.9375,18.3662Z"/><path class="cls-1" d="M132.7271,23.55a2.7581,2.7581,0,0,0-.2789.0176.8.8,0,0,1-.7929-.2613c-3.9-3.5756-5.4893-5.0322-5.7359-5.3715a.7347.7347,0,0,1,.0923-.07c1.083-.7085,2.79-1.853,5.2232-3.5034a1.0993,1.0993,0,0,1,.5595-.208,1.3664,1.3664,0,0,1,.2412.0108,1.8,1.8,0,0,0,.3511.0175.99.99,0,0,0,1.04-.9829.9615.9615,0,0,0-.2925-.7475,1.0557,1.0557,0,0,0-.7847-.2359c-.729.0279-1.4033.0288-2.02.0288-.6455,0-1.2632,0-1.9639-.0283h-.0669a.9653.9653,0,0,0-1.0107.9839c0,.71.5483.876,1.0581.9165-3.9253,2.7065-4.1914,2.8384-4.4165,2.8384-.2119,0-.2295-.0952-.2295-.1988,0-.06.0547-6.0209.0537-9.6176a2.3708,2.3708,0,0,0-.438-1.4395,2.7263,2.7263,0,0,0-2.3193-.9238h-.0024c-.7769,0-1.7437,0-1.7437,1.0674a1.0247,1.0247,0,0,0,1.0674,1.039h.6094c.51.02.6909.1558.6909.8775.0005.709.0068,1.4975.0136,2.3369.0079.9634.0162,1.9941.0166,3.0493.001,3.5537-.03,7.3677-.082,10.2066,0,.1069-.0259.2294-.23.2294-.2339,0-.3584-.0078-.4736-.0151-.1079-.0068-.2085-.0132-.4-.0132a1.026,1.026,0,0,0-1.0674,1.04.9876.9876,0,0,0,.2954.7138,1.0377,1.0377,0,0,0,.7447.2705c.0219,0,.0444,0,.0673-.0014.7061-.0313,1.3453-.0567,2.02-.0567h.0361c.7168,0,1.4473.0284,2.19.0557a1.0733,1.0733,0,0,0,.7808-.3.9952.9952,0,0,0,.2861-.7114,1.0192,1.0192,0,0,0-1.1128-1.0108h-.0014l-.0694.0054a6.5139,6.5139,0,0,1-.6948.0225c-.16.0024-.2363-.0533-.2363-.2349-.0278-1.32-.0283-2.21-.0288-2.9263,0-1.47.0547-1.47.2007-1.47a.7714.7714,0,0,1,.6665.2617c.4907.5059,1.4267,1.396,2.4179,2.3379.7315.6953,1.4937,1.42,2.1275,2.0386a2.692,2.692,0,0,1-.3614.02,1.0233,1.0233,0,0,0-.7524.2559.9869.9869,0,0,0-.2578.7275.9649.9649,0,0,0,1.0112.9829l.1514-.0039c1.2275-.0542,2.3306-.0552,3.7134-.001l.1386.0039a1.023,1.023,0,0,0,.7437-.2885,1.0651,1.0651,0,0,0,.2959-.7515.9444.9444,0,0,0-1.04-.9829Z"/><path class="cls-1" d="M146.7109,21.8276a1.0518,1.0518,0,0,0-.7509.3379,4.7872,4.7872,0,0,1-3.9014,1.7779h-.002a4.443,4.443,0,0,1-3.2041-1.2535,4.7931,4.7931,0,0,1-1.2817-3.4585c0-.2006.01-.2465.0039-.249a.2767.2767,0,0,1,.0845-.0083c.2138,0,.6382.0034,1.1894.0078,1.022.0078,2.4785.02,3.8345.02,1.0918.0019,2.0923.0009,2.7681-.0284a2.1,2.1,0,0,0,2.2983-2.14,5.53,5.53,0,0,0-5.8052-4.8726h-.0019c-3.7271.001-6.5366,3.0425-6.5357,7.0743a7.0426,7.0426,0,0,0,1.9165,4.9931,6.52,6.52,0,0,0,4.7061,1.91h.0019c3.5342-.001,5.7754-2.14,5.7754-3.0425A1.1106,1.1106,0,0,0,146.7109,21.8276Zm-8.914-4.78a3.4184,3.4184,0,0,1,1.12-1.9038,4.4591,4.4591,0,0,1,3.0552-1.2745c2.7221,0,3.6133,1.9952,3.6142,2.6822,0,.2529-.082.5146-.6894.54-.7573.0274-2.2388.0283-3.6714.0293H141.07A27.2757,27.2757,0,0,1,137.7969,17.0474Z"/><path class="cls-1" d="M157.0859,23.8271l-.2129.0088a6.8077,6.8077,0,0,1-.6894.0479c-1.9155,0-2.0054-1.1812-2.0064-3.4439,0-1.2138.0284-2.705.0523-3.95.0171-.895.0317-1.6635.0317-2.1113,0-.0454,0-.0986.002-.1367a1.7713,1.7713,0,0,1,.1992-.0078l2.4805-.001a.9982.9982,0,1,0,0-1.9946l-2.5088.001c-.06,0-.1255,0-.1729-.002,0-.0142-.0009-.0312-.0009-.0518,0,0,.0561-2.26.0561-3.08a1.0692,1.0692,0,1,0-2.1357-.0269v.6758c0,.7363-.0157,1.6773-.024,2.1523l-.0044.3023,0,.03c-.0157,0-.0347.001-.0586.001l-1.6348.0009a.9982.9982,0,1,0,0,1.9947l1.6631-.001.03.0005c.0009.0151.0019.0346.0019.0591v.4511c0,.6363-.0117,1.7085-.0244,2.857-.0146,1.3462-.0308,2.7963-.03,3.77a6.2755,6.2755,0,0,0,.4771,2.7314,3.4182,3.4182,0,0,0,3.3808,1.8311h.002c.7686,0,2.0547,0,2.0547-1.1245A.95.95,0,0,0,157.0859,23.8271Z"/><path class="cls-1" d="M171.3247,21.8223a1.13,1.13,0,0,0-.9341.5244,4.1838,4.1838,0,0,1-3.4077,1.5342h-.0019c-3.0547,0-4.6543-2.5118-4.6553-4.9932a5.3129,5.3129,0,0,1,1.3486-3.6675,4.4754,4.4754,0,0,1,3.3067-1.4121,3.4576,3.4576,0,0,1,2.686,1.0674,1.0846,1.0846,0,0,1,.2139.8262c.0009.1069.0019.2226.0083.3535a.9932.9932,0,0,0,1.04.91,1.1287,1.1287,0,0,0,.81-.3032.8986.8986,0,0,0,.2573-.6523v-.0674c-.0273-.6431-.0273-1.0913-.0273-1.5112,0-.4478,0-.8672.0268-1.4546l0-.0684a.9722.9722,0,0,0-1.0684-.9546.835.835,0,0,0-.9257.7061l-.001.0063a6.7648,6.7648,0,0,0-3.2183-.8242c-3.6977.001-6.5932,3.1455-6.5923,7.1592a6.6733,6.6733,0,0,0,6.8765,6.9028h.002c3.1245-.001,5.4082-1.9458,5.4082-2.9575A1.1533,1.1533,0,0,0,171.3247,21.8223Zm-1.1724-9.07-.1058.2154-.0023-.0009.0447-.2136A.5433.5433,0,0,1,170.1523,12.752Z"/><path class="cls-1" d="M189.1616,23.8364a1.09,1.09,0,0,0-.8042-.2983h-.0029c-.2041,0-.3.0073-.3984.0146-.0923.0069-.1866.0137-.3916.0137-.1553,0-.23-.0386-.23-.2578,0-2.1436-.0288-5.4424-.0577-6.6631a4.7193,4.7193,0,0,0-4.9575-4.751h-.0024A5.5951,5.5951,0,0,0,178.229,13.58c.001-.1192.002-.2573.0029-.4121.0078-1.022.021-2.7627.021-4.377l-.0009-1.6074a2.214,2.214,0,0,0-2.1368-2.3906,6.3339,6.3339,0,0,0-.7353-.0576c-.7857,0-1.687.1245-1.687,1.0957a1.0286,1.0286,0,0,0,1.0849,1.0381h.0015a5.2167,5.2167,0,0,1,.5908-.0274c.544.021.7188.2407.7188.9058.0005.7671.0063,1.6557.0132,2.622.0078,1.1641.0166,2.4405.017,3.7505,0,3.5034-.0278,7.0581-.0546,9.22,0,.191-.0772.2295-.2012.2295-.2305,0-.3628-.0078-.4878-.0146-.1206-.0073-.2349-.0137-.4429-.0137a1.0252,1.0252,0,0,0-1.0664,1.04.9875.9875,0,0,0,.2949.7128,1.0377,1.0377,0,0,0,.7461.271c.0215,0,.0435,0,.0655-.0009.6533-.0288,1.35-.0567,2.0478-.0577.6729,0,1.39.0254,2.2275.0567a1.0632,1.0632,0,0,0,.7735-.3037,1.0062,1.0062,0,0,0,.293-.708.9959.9959,0,0,0-.3111-.7329,1.0609,1.0609,0,0,0-.8027-.2779l-.0694.0054a6.5139,6.5139,0,0,1-.6948.0225c-.1567-.0205-.2363-.0533-.2363-.23,0-.7168-.0083-1.4082-.0161-2.0577-.0064-.5517-.0127-1.0722-.0132-1.5512,0-.5864.0093-1.1162.0176-1.562.0058-.3262.0107-.6079.0107-.8247a3.8845,3.8845,0,0,1,3.95-3.4541h.0025c1.7558,0,2.874,1.1552,2.9917,3.0888.0278.5293.0561,1.8374.0561,3.314.0005.54-.0073,1.0874-.0141,1.6191-.0069.4956-.0132.9771-.0132,1.4258,0,.1524-.0679.23-.2017.23-.23.001-.3472-.0068-.458-.0142-.106-.0068-.2075-.0131-.4155-.0131a1.0243,1.0243,0,0,0-1.0669,1.039.9892.9892,0,0,0,.2949.7139,1.0522,1.0522,0,0,0,.8125.2695c1.3735-.06,2.8071-.0542,4.2041-.001l.043,0a1.0722,1.0722,0,0,0,.7876-.3086,1.026,1.026,0,0,0-.01-1.416Z"/><path class="cls-1" d="M31.9185,17.1826V3.07A3.0732,3.0732,0,0,0,28.8486,0H3.0693A3.073,3.073,0,0,0,0,3.07V21.8232a3.0729,3.0729,0,0,0,3.0693,3.0694H14.6431l-4.169,4.1958a.9508.9508,0,0,0,.0039,1.3428.9729.9729,0,0,0,1.3428-.004l4.1382-4.165,4.1387,4.1655a.95.95,0,0,0,1.3466-1.3393l-4.1689-4.1958H28.8486a3.0731,3.0731,0,0,0,3.07-3.0694V19.4771l7.7407,5.2519a.9734.9734,0,0,0,1.3188-.2529.9516.9516,0,0,0-.2524-1.3189Zm-7.61-4.0161a.9491.9491,0,0,0,.2529,1.3189L30.02,18.1885v3.6347a1.172,1.172,0,0,1-1.1709,1.1705H3.0693a1.1716,1.1716,0,0,1-1.17-1.1705V3.07a1.172,1.172,0,0,1,1.17-1.1709H28.8486A1.1724,1.1724,0,0,1,30.02,3.07V15.894l-4.3925-2.98a.95.95,0,0,0-1.3189.2529Z"/></g></g></svg>