<svg xmlns="http://www.w3.org/2000/svg" width="188.9504" height="30.207" viewBox="0 0 188.9504 30.207"><defs><style>.cls-1{fill:#e515aa;}</style></defs><title>logo_1</title><g id="Layer_2" data-name="Layer 2"><g id="Layer_1-2" data-name="Layer 1"><path class="cls-1" d="M65.9684,23.537a.75.75,0,0,1,.7337.8185c0,.7892-.761.874-1.1274.874a2.3121,2.3121,0,0,1-2.5674-2.0014c-.0282-.17-.0565-.2816-.14-.2816-.0283,0-.0565.0283-.113.0848A5.87,5.87,0,0,1,58.0458,25.4c-3.6655.0009-6.4015-2.6484-6.4025-6.7369a6.3135,6.3135,0,0,1,6.3988-6.6841,5.6671,5.6671,0,0,1,4.4557,2.03c.1413.1969.226.3382.2826.3382s.0847-.1413.0847-.5077c0-1.4381.0273-3.44.0273-5.0754-.0009-1.9176-.0009-2.397-1.1292-2.397a3.4393,3.4393,0,0,0-.4511.0292h-.0566a.7253.7253,0,0,1-.7892-.7327.8372.8372,0,0,1,.874-.8467c.2816,0,.6772-.0283.9305-.0283a2.0511,2.0511,0,0,1,2.2557,2.34v.113c-.0273,2.3687-.0546,6.9365-.0537,10.7989,0,1.4382.0009,2.7351.0009,3.8351,0,1.3534.4794,1.6915,1.1,1.6906.14,0,.2533-.0283.3664-.0283ZM62.8661,18.66c-.001-3.1579-2.0881-5.2158-4.7666-5.2149-2.8481.001-4.7929,1.9741-4.792,5.2168.001,3.2144,1.9741,5.1885,4.7939,5.1875C60.7517,23.8488,62.867,21.79,62.8661,18.66Z"/><path class="cls-1" d="M78.2036,23.3374c-.0282-.0848-.0565-.1413-.1121-.1413a.1516.1516,0,0,0-.113.0848,5.21,5.21,0,0,1-4.2853,2.1728c-2.8471,0-4.5687-1.9449-4.5687-3.8907-.001-1.41.93-2.8481,3.0166-3.497A45.2233,45.2233,0,0,1,77.3569,16.91c.3381-.0566.4511-.1423.4511-.3391,0-.1413.0283-.31.0274-.4511,0-1.5512-.648-2.7624-2.9319-2.7624a4.4437,4.4437,0,0,0-3.2992,1.3543.7847.7847,0,0,1-.5924.2817.764.764,0,0,1-.7893-.761c0-1.0718,2.3678-2.284,4.792-2.2849,2.623,0,4.4,1.1556,4.4011,4.3135a7.66,7.66,0,0,1-.0282.7893c-.0848.93-.1413,2.396-.14,3.4678,0,2.0588.1978,2.735,1.3252,3.13a.7169.7169,0,0,1,.48.7045.7629.7629,0,0,1-.761.7893A2.4,2.4,0,0,1,78.2036,23.3374ZM77.78,19.0238v-.3663c0-.2261-.0848-.3108-.2816-.3108h-.0848c-4.4265.7063-6.767,1.2705-6.766,3.2445,0,1.1839,1.1283,2.3678,3.0166,2.3678C75.1022,23.958,77.7807,23.3656,77.78,19.0238Z"/><path class="cls-1" d="M87.5907,13.7487c-.4511,0-.4511.0565-.4511.3946,0,1.0718-.0838,3.9755-.0838,6.0625.0009,2.1992.0574,3.6938,2.2566,3.6929.2533,0,.5076-.0282.7892-.0565h.113a.7.7,0,0,1,.6782.7327c0,.7328-.6772.874-1.8046.875-3.609.0009-3.61-3.0722-3.61-4.3136-.0009-1.8045.0537-5.244.0537-6.6257V14.06c0-.2816-.0838-.31-.2816-.31H83.5871a.7485.7485,0,1,1,0-1.4946h1.635c.2542,0,.31-.0283.3089-.2816,0-.113.0282-1.4664.0282-2.4535V8.8155a.8189.8189,0,1,1,1.636.0555c0,.8175-.0565,3.0732-.0565,3.0732.0009.31.0574.31.4238.31h2.509a.7256.7256,0,0,1,.79.7328.7333.7333,0,0,1-.79.7619Z"/><path class="cls-1" d="M102.6759,23.3317c-.0283-.0847-.0565-.1412-.1121-.1412a.1511.1511,0,0,0-.113.0847,5.21,5.21,0,0,1-4.2853,2.1728c-2.8471,0-4.5688-1.9449-4.5688-3.8907-.0009-1.41.93-2.848,3.0167-3.4969a45.2262,45.2262,0,0,1,5.2158-1.1566c.3381-.0565.4511-.1413.4511-.3391,0-.14.0283-.31.0273-.4511,0-1.55-.648-2.7623-2.9319-2.7623a4.4435,4.4435,0,0,0-3.2992,1.3543.7843.7843,0,0,1-.5924.2816.764.764,0,0,1-.7892-.761c0-1.0718,2.3677-2.2839,4.792-2.2848,2.6229,0,4.4,1.1556,4.4011,4.3135a7.6315,7.6315,0,0,1-.0283.7892c-.0847.9306-.1412,2.396-.14,3.4678,0,2.0588.1978,2.7351,1.3251,3.13a.717.717,0,0,1,.48.7045.7628.7628,0,0,1-.761.7892A2.4,2.4,0,0,1,102.6759,23.3317Zm-.4238-4.3135v-.3664c0-.226-.0848-.3108-.2817-.3108h-.0847c-4.4266.7064-6.767,1.27-6.7661,3.2446,0,1.1839,1.1283,2.3677,3.0167,2.3677C99.5745,23.9524,102.253,23.36,102.2521,19.0182Z"/><path class="cls-1" d="M116.6308,12.67c-.0282.5924-.0282.987-.0282,1.41,0,.3946,0,.8185.0282,1.4664v.0566a.6938.6938,0,0,1-.7045.6762.7238.7238,0,0,1-.79-.7328c0-2.2556-2.5091-2.2547-2.6786-2.2547-1.4664,0-2.2839.875-2.2839,1.8055a2.1721,2.1721,0,0,0,1.3826,1.86c.7892.3664,2.1426.93,3.0166,1.3807a4.036,4.036,0,0,1,2.5109,3.496c0,1.55-1.24,3.6373-4.4538,3.6383a4.42,4.42,0,0,1-2.82-.93.3593.3593,0,0,0-.1978-.113c-.0565,0-.0848.0565-.0848.1413,0,.7044-.3381.7892-.6762.7892a.68.68,0,0,1-.7328-.6762v-.0565c.0274-.6207.0547-1.0436.0547-1.4664s-.0273-.8458-.0556-1.522v-.0565a.74.74,0,0,1,.7893-.7337.7234.7234,0,0,1,.7609.761c0,.1978-.0565.3381-.0565.5359,0,.93,1.41,1.86,3.0176,1.86,1.4372,0,2.8189-.8185,2.8189-2.1719,0-1.4946-1.2413-2.17-4.5123-3.5233a3.408,3.408,0,0,1-2.2848-3.13c0-1.635,1.3242-3.2417,3.8341-3.2427a4.5418,4.5418,0,0,1,2.4817.76.2077.2077,0,0,0,.17.0565c.1412,0,.113-.2534.1412-.3381a.6343.6343,0,0,1,.6471-.4512.6592.6592,0,0,1,.7063.6772Z"/><path class="cls-1" d="M132.45,25.0732c-.7327-.0283-1.4089-.0556-2.03-.0556s-1.24.0282-1.8893.0565h-.0565a.7169.7169,0,0,1-.761-.7327.66.66,0,0,1,.76-.7337c.7337,0,.7337-.17.7337-.1978a.2137.2137,0,0,0-.0566-.113c-1.4946-1.4655-3.8077-3.6081-4.6817-4.5095a1.0077,1.0077,0,0,0-.8458-.3381c-.4229,0-.4511.2534-.4511,1.72.0009.6762.0009,1.5785.0292,2.9319a.4309.4309,0,0,0,.4793.4794,7.0984,7.0984,0,0,0,.7893-.0283h.0282a.7633.7633,0,1,1,.001,1.5229h-.0283c-.7327-.0282-1.4664-.0565-2.1991-.0555-.7045,0-1.3817.0282-2.03.0565a.7289.7289,0,0,1-.8467-.7328.7762.7762,0,0,1,.8175-.79h.0282c.3381,0,.3946.0282.8458.0282a.4446.4446,0,0,0,.4794-.4794c.0546-2.9611.0828-6.767.0819-10.2065-.0009-1.974-.0292-3.8633-.03-5.3863,0-.7892-.2251-1.0991-.9306-1.1273h-.6479a.7692.7692,0,0,1-.7893-.7893c0-.7327.5077-.8175,1.4938-.8175,2.3121-.0009,2.51,1.4938,2.51,2.1135.0009,3.6373-.0537,9.615-.0537,9.615a.4232.4232,0,0,0,.4794.4512c.31,0,.4229-.0283,4.8768-3.1024.0847-.0565.113-.113.113-.1413,0-.0565-.0565-.0847-.1978-.0847-.5077,0-1.1839,0-1.1839-.6763a.7175.7175,0,0,1,.761-.7336h.0565c.7045.0282,1.3252.0282,1.9741.0282.62,0,1.2969-.0009,2.03-.0292a.6869.6869,0,0,1,.8175.7337.7416.7416,0,0,1-.7892.7327h-.0283c-.3946,0-.1686-.0282-.5642-.0282a1.3487,1.3487,0,0,0-.7044.2543c-1.6633,1.1283-3.8342,2.5947-5.2149,3.4979-.17.1121-.226.1968-.226.2816,0,.1968.7327.874,5.8374,5.553a1.0437,1.0437,0,0,0,.8175.3381c.113,0,.2543-.0283.4229-.0283a.6974.6974,0,0,1,.79.7328.7527.7527,0,0,1-.7892.79Z"/><path class="cls-1" d="M141.7812,25.4376a6.3,6.3,0,0,1-6.3742-6.653c-.001-4.1167,2.9592-6.8235,6.2857-6.8244a5.2539,5.2539,0,0,1,5.5567,4.6224c0,1.0436-.62,1.8328-2.0579,1.89-.6489.0282-1.6077.0282-2.65.0282-2.1153.001-4.5113-.0273-5.1319-.0273-.2816.001-.3381.113-.3381.5077a4.6053,4.6053,0,0,0,4.7373,4.9615,5.0515,5.0515,0,0,0,4.0884-1.862.8.8,0,0,1,.5642-.2534.8619.8619,0,0,1,.8458.8175C147.3069,23.2931,145.3337,25.4367,141.7812,25.4376Zm-.0593-12.0684c-2.7068.0009-4.4266,2.4261-4.4257,3.47,0,.2816.2543.2816,3.5243.2816,1.4665-.0009,3.0459-.0009,3.8351-.0292.6763-.0282.93-.339.93-.79C145.5852,15.4835,144.5982,13.3692,141.7219,13.3692Z"/><path class="cls-1" d="M154.2123,13.7336c-.4511,0-.4511.0565-.4511.3947,0,1.0708-.0839,3.9754-.0839,6.0615.001,2.1992.0575,3.6938,2.2566,3.6938.2534,0,.5077-.0282.7893-.0565h.113a.6988.6988,0,0,1,.6772.7328c0,.7327-.6763.874-1.8046.874-3.609.0009-3.61-3.0722-3.61-4.3126-.0009-1.8046.0547-5.245.0547-6.6267v-.4511c0-.2816-.0839-.31-.2816-.31l-1.6633.001a.7485.7485,0,1,1,0-1.4947l1.635-.0009c.2534,0,.31-.0283.3089-.2816,0-.1131.0283-1.4665.0283-2.4535V8.7994a.8189.8189,0,1,1,1.6359.0556c0,.8184-.0565,3.0741-.0565,3.0741.001.31.0575.31.4238.31l2.509-.001a.7485.7485,0,1,1,0,1.4947Z"/><path class="cls-1" d="M166.8185,25.4037a6.4094,6.4094,0,0,1-6.6285-6.653c-.0009-3.9472,2.79-6.9082,6.3422-6.9092a6.5011,6.5011,0,0,1,3.1872.8448c.0565.0283.0847.0565.1412.0565.0848,0,.113-.17.1413-.31.0283-.3391.3654-.4794.6753-.4794a.7279.7279,0,0,1,.8184.7045v.0565c-.0273.5924-.0273,1.0153-.0273,1.4664,0,.4229,0,.874.0273,1.522V15.76a.7265.7265,0,0,1-.8165.7054.7466.7466,0,0,1-.79-.6762c-.0283-.5924.0565-.9315-.2816-1.3261a3.7048,3.7048,0,0,0-2.8763-1.1547c-2.7633,0-4.906,2.2-4.905,5.33.0009,2.5655,1.6642,5.2441,4.9068,5.2431a4.4372,4.4372,0,0,0,3.6091-1.6359.8864.8864,0,0,1,.7327-.4229.903.903,0,0,1,.9023.874C171.9769,23.5135,169.8635,25.4028,166.8185,25.4037Z"/><path class="cls-1" d="M188.1056,25.0609c-.7337-.0282-1.4664-.0565-2.2-.0565-.7045,0-1.3807.0283-2.03.0575a.7291.7291,0,0,1-.8458-.7337.7753.7753,0,0,1,.8166-.7893h.0282c.3664,0,.3946.0283.8458.0273a.4369.4369,0,0,0,.4511-.4793c0-.9306.0283-2.0014.0273-3.0449,0-1.4665-.0282-2.7916-.0565-3.3275a3.1638,3.1638,0,0,0-3.2436-3.3256,4.1182,4.1182,0,0,0-4.2,3.6948c0,.5349-.0283,1.3816-.0283,2.396.001,1.0435.0292,2.2839.0292,3.609a.4306.4306,0,0,0,.4794.4794,7.1234,7.1234,0,0,0,.7893-.0282.7645.7645,0,1,1,.0292,1.5229H178.97c-.7337-.0283-1.4947-.0565-2.1991-.0565s-1.41.0292-2.0589.0574a.7289.7289,0,0,1-.8457-.7327.7754.7754,0,0,1,.8165-.79h.0283c.3664,0,.4511.0283.9023.0283a.4236.4236,0,0,0,.4511-.4794c.0283-2.2849.0556-5.8374.0546-9.22-.0009-2.397-.0292-4.6809-.03-6.3724,0-.7327-.2251-1.1274-.9588-1.1556a5.4682,5.4682,0,0,0-.62.0282h-.0283a.7692.7692,0,0,1-.7892-.7892c0-.4794.2251-.8458,1.4372-.8458a6.1356,6.1356,0,0,1,.7054.0556,1.9663,1.9663,0,0,1,1.9166,2.1427q0,.7614.001,1.6076c0,2.284-.0264,4.8212-.0264,5.2158,0,.0848.0273.1413.0556.1413s.0565-.0282.113-.0848a5.28,5.28,0,0,1,4.1723-1.9184,4.4653,4.4653,0,0,1,4.71,4.51c.0283,1.1839.0575,4.4266.0575,6.654,0,.31.1412.5076.4793.5076.4229,0,.3947-.0282.79-.0282h.0283a.7633.7633,0,1,1,.0009,1.5229Z"/><path class="cls-1" d="M40.335,23.1141l-8.9166-6.0494V2.82A2.8228,2.8228,0,0,0,28.5988,0H2.82A2.8228,2.8228,0,0,0,0,2.82V21.5728a2.8229,2.8229,0,0,0,2.82,2.82H14.9939l-4.5926,4.622a.7.7,0,0,0,.9924.9861l4.3155-4.3433,4.3156,4.3433a.6995.6995,0,0,0,.9923-.9861l-4.5914-4.6208v-.0012H28.5988a2.8228,2.8228,0,0,0,2.82-2.82V18.7552L39.55,24.2718a.6995.6995,0,0,0,.7854-1.1577ZM30.02,16.1156l-4.7828-3.245a.7.7,0,0,0-.7855,1.1577L30.02,17.8061v3.7667a1.4223,1.4223,0,0,1-1.4207,1.4207H2.82A1.4223,1.4223,0,0,1,1.399,21.5728V2.82A1.4222,1.4222,0,0,1,2.82,1.399H28.5988A1.4223,1.4223,0,0,1,30.02,2.82Z"/></g></g></svg>