<?xml version="1.0" encoding="utf-8"?>
<!-- Generator: Adobe Illustrator 23.0.6, SVG Export Plug-In . SVG Version: 6.00 Build 0)  -->
<svg version="1.1" id="Layer_1" xmlns="http://www.w3.org/2000/svg" xmlns:xlink="http://www.w3.org/1999/xlink" x="0px" y="0px"
	 width="2626.9282px" height="22.6026px" viewBox="0 0 2626.9282 22.6026" style="enable-background:new 0 0 2626.9282 22.6026;"
	 xml:space="preserve">
<style type="text/css">
	.st0{fill:#1B0D20;}
</style>
<title>divider_thick_v3</title>
<g>
	<polygon class="st0" points="1290,22.4645 1290.4611,22.6025 1303.7354,0 1303.193,0 	"/>
	<polygon class="st0" points="1280,22.4645 1280.4611,22.6025 1293.7354,0 1293.193,0 	"/>
	<polygon class="st0" points="1270,22.4645 1270.4611,22.6025 1283.7354,0 1283.193,0 	"/>
	<polygon class="st0" points="1260,22.4645 1260.4611,22.6025 1273.7354,0 1273.193,0 	"/>
	<polygon class="st0" points="1250,22.4645 1250.4611,22.6025 1263.7354,0 1263.193,0 	"/>
	<polygon class="st0" points="1240,22.4645 1240.4611,22.6025 1253.7354,0 1253.193,0 	"/>
	<polygon class="st0" points="1230,22.4645 1230.4611,22.6025 1243.7354,0 1243.193,0 	"/>
	<polygon class="st0" points="1220,22.4645 1220.4611,22.6025 1233.7354,0 1233.193,0 	"/>
	<polygon class="st0" points="1210,22.4645 1210.4611,22.6025 1223.7354,0 1223.193,0 	"/>
	<polygon class="st0" points="1200,22.4645 1200.4611,22.6025 1213.7354,0 1213.193,0 	"/>
	<polygon class="st0" points="1190,22.4645 1190.4611,22.6025 1203.7354,0 1203.193,0 	"/>
	<polygon class="st0" points="1180,22.4645 1180.4611,22.6025 1193.7354,0 1193.193,0 	"/>
	<polygon class="st0" points="1170,22.4645 1170.4611,22.6025 1183.7354,0 1183.193,0 	"/>
	<polygon class="st0" points="1160,22.4645 1160.4611,22.6025 1173.7354,0 1173.193,0 	"/>
	<polygon class="st0" points="1150,22.4645 1150.4611,22.6025 1163.7354,0 1163.193,0 	"/>
	<polygon class="st0" points="1140,22.4645 1140.4611,22.6025 1153.7354,0 1153.193,0 	"/>
	<polygon class="st0" points="1130,22.4645 1130.4611,22.6025 1143.7354,0 1143.193,0 	"/>
	<polygon class="st0" points="1120,22.4645 1120.4611,22.6025 1133.7354,0 1133.193,0 	"/>
	<polygon class="st0" points="1110,22.4645 1110.4611,22.6025 1123.7354,0 1123.193,0 	"/>
	<polygon class="st0" points="1100,22.4645 1100.4611,22.6025 1113.7354,0 1113.193,0 	"/>
	<polygon class="st0" points="1090,22.4645 1090.4611,22.6025 1103.7354,0 1103.193,0 	"/>
	<polygon class="st0" points="1080,22.4645 1080.4611,22.6025 1093.7354,0 1093.193,0 	"/>
	<polygon class="st0" points="1070,22.4645 1070.4611,22.6025 1083.7354,0 1083.193,0 	"/>
	<polygon class="st0" points="1060,22.4645 1060.4611,22.6025 1073.7354,0 1073.193,0 	"/>
	<polygon class="st0" points="1050,22.4645 1050.4611,22.6025 1063.7354,0 1063.193,0 	"/>
	<polygon class="st0" points="1040,22.4645 1040.4611,22.6025 1053.7354,0 1053.193,0 	"/>
	<polygon class="st0" points="1030,22.4645 1030.4611,22.6025 1043.7354,0 1043.193,0 	"/>
	<polygon class="st0" points="1020,22.4645 1020.461,22.6025 1033.7354,0 1033.193,0 	"/>
	<polygon class="st0" points="1010,22.4645 1010.461,22.6025 1023.7353,0 1023.193,0 	"/>
	<polygon class="st0" points="1000,22.4645 1000.461,22.6025 1013.7353,0 1013.193,0 	"/>
	<polygon class="st0" points="990,22.4645 990.461,22.6025 1003.7353,0 1003.193,0 	"/>
	<polygon class="st0" points="980,22.4645 980.461,22.6025 993.7353,0 993.193,0 	"/>
	<polygon class="st0" points="970,22.4645 970.461,22.6025 983.7353,0 983.193,0 	"/>
	<polygon class="st0" points="960,22.4645 960.461,22.6025 973.7353,0 973.193,0 	"/>
	<polygon class="st0" points="950,22.4645 950.461,22.6025 963.7353,0 963.193,0 	"/>
	<polygon class="st0" points="940,22.4645 940.461,22.6025 953.7353,0 953.193,0 	"/>
	<polygon class="st0" points="930,22.4645 930.461,22.6025 943.7353,0 943.193,0 	"/>
	<polygon class="st0" points="920,22.4645 920.461,22.6025 933.7353,0 933.193,0 	"/>
	<polygon class="st0" points="910,22.4645 910.461,22.6025 923.7353,0 923.193,0 	"/>
	<polygon class="st0" points="900,22.4645 900.461,22.6025 913.7353,0 913.193,0 	"/>
	<polygon class="st0" points="890,22.4645 890.461,22.6025 903.7353,0 903.193,0 	"/>
	<polygon class="st0" points="880,22.4645 880.461,22.6025 893.7353,0 893.193,0 	"/>
	<polygon class="st0" points="870,22.4645 870.461,22.6025 883.7353,0 883.193,0 	"/>
	<polygon class="st0" points="860,22.4645 860.461,22.6025 873.7353,0 873.193,0 	"/>
	<polygon class="st0" points="850,22.4645 850.461,22.6025 863.7353,0 863.193,0 	"/>
	<polygon class="st0" points="840,22.4645 840.461,22.6025 853.7353,0 853.193,0 	"/>
	<polygon class="st0" points="830,22.4645 830.461,22.6025 843.7353,0 843.193,0 	"/>
	<polygon class="st0" points="820,22.4645 820.461,22.6025 833.7353,0 833.193,0 	"/>
	<polygon class="st0" points="810,22.4645 810.461,22.6025 823.7353,0 823.193,0 	"/>
	<polygon class="st0" points="800,22.4645 800.461,22.6025 813.7353,0 813.193,0 	"/>
	<polygon class="st0" points="790,22.4645 790.461,22.6025 803.7353,0 803.193,0 	"/>
	<polygon class="st0" points="780,22.4645 780.461,22.6025 793.7353,0 793.193,0 	"/>
	<polygon class="st0" points="770,22.4645 770.461,22.6025 783.7353,0 783.193,0 	"/>
	<polygon class="st0" points="760,22.4645 760.461,22.6025 773.7353,0 773.193,0 	"/>
	<polygon class="st0" points="750,22.4645 750.461,22.6025 763.7353,0 763.193,0 	"/>
	<polygon class="st0" points="740,22.4645 740.461,22.6025 753.7353,0 753.193,0 	"/>
	<polygon class="st0" points="730,22.4645 730.461,22.6025 743.7353,0 743.193,0 	"/>
	<polygon class="st0" points="720,22.4645 720.461,22.6025 733.7353,0 733.193,0 	"/>
	<polygon class="st0" points="710,22.4645 710.461,22.6025 723.7353,0 723.193,0 	"/>
	<polygon class="st0" points="700,22.4645 700.461,22.6025 713.7353,0 713.193,0 	"/>
	<polygon class="st0" points="690,22.4645 690.461,22.6025 703.7353,0 703.193,0 	"/>
	<polygon class="st0" points="680,22.4645 680.461,22.6025 693.7353,0 693.193,0 	"/>
	<polygon class="st0" points="670,22.4645 670.461,22.6025 683.7353,0 683.193,0 	"/>
	<polygon class="st0" points="660,22.4645 660.461,22.6025 673.7353,0 673.193,0 	"/>
	<polygon class="st0" points="650,22.4645 650.461,22.6025 663.7353,0 663.193,0 	"/>
	<polygon class="st0" points="640,22.4645 640.461,22.6025 653.7353,0 653.193,0 	"/>
	<polygon class="st0" points="630,22.4645 630.461,22.6025 643.7353,0 643.193,0 	"/>
	<polygon class="st0" points="620,22.4645 620.461,22.6025 633.7353,0 633.193,0 	"/>
	<polygon class="st0" points="610,22.4645 610.461,22.6025 623.7353,0 623.193,0 	"/>
	<polygon class="st0" points="600,22.4645 600.461,22.6025 613.7353,0 613.193,0 	"/>
	<polygon class="st0" points="590,22.4645 590.461,22.6025 603.7353,0 603.193,0 	"/>
	<polygon class="st0" points="580,22.4645 580.461,22.6025 593.7353,0 593.193,0 	"/>
	<polygon class="st0" points="570,22.4645 570.461,22.6025 583.7353,0 583.193,0 	"/>
	<polygon class="st0" points="560,22.4645 560.461,22.6025 573.7353,0 573.193,0 	"/>
	<polygon class="st0" points="550,22.4645 550.461,22.6025 563.7353,0 563.193,0 	"/>
	<polygon class="st0" points="540,22.4645 540.461,22.6025 553.7353,0 553.193,0 	"/>
	<polygon class="st0" points="530,22.4645 530.461,22.6025 543.7353,0 543.193,0 	"/>
	<polygon class="st0" points="520,22.4645 520.461,22.6025 533.7353,0 533.193,0 	"/>
	<polygon class="st0" points="510,22.4645 510.461,22.6025 523.7353,0 523.193,0 	"/>
	<polygon class="st0" points="500,22.4645 500.461,22.6025 513.7353,0 513.193,0 	"/>
	<polygon class="st0" points="490,22.4645 490.461,22.6025 503.7353,0 503.193,0 	"/>
	<polygon class="st0" points="480,22.4645 480.461,22.6025 493.7354,0 493.193,0 	"/>
	<polygon class="st0" points="470,22.4645 470.461,22.6025 483.7354,0 483.193,0 	"/>
	<polygon class="st0" points="460,22.4645 460.461,22.6025 473.7354,0 473.193,0 	"/>
	<polygon class="st0" points="450,22.4645 450.461,22.6025 463.7354,0 463.193,0 	"/>
	<polygon class="st0" points="440,22.4645 440.461,22.6025 453.7354,0 453.193,0 	"/>
	<polygon class="st0" points="430,22.4645 430.461,22.6025 443.7354,0 443.193,0 	"/>
	<polygon class="st0" points="420,22.4645 420.461,22.6025 433.7354,0 433.193,0 	"/>
	<polygon class="st0" points="410,22.4645 410.461,22.6025 423.7354,0 423.193,0 	"/>
	<polygon class="st0" points="400,22.4645 400.461,22.6025 413.7354,0 413.193,0 	"/>
	<polygon class="st0" points="390,22.4645 390.461,22.6025 403.7354,0 403.193,0 	"/>
	<polygon class="st0" points="380,22.4645 380.461,22.6025 393.7354,0 393.193,0 	"/>
	<polygon class="st0" points="370,22.4645 370.461,22.6025 383.7354,0 383.193,0 	"/>
	<polygon class="st0" points="360,22.4645 360.461,22.6025 373.7354,0 373.193,0 	"/>
	<polygon class="st0" points="350,22.4645 350.461,22.6025 363.7354,0 363.193,0 	"/>
	<polygon class="st0" points="340,22.4645 340.461,22.6025 353.7354,0 353.193,0 	"/>
	<polygon class="st0" points="330,22.4645 330.461,22.6025 343.7354,0 343.193,0 	"/>
	<polygon class="st0" points="320,22.4645 320.461,22.6025 333.7354,0 333.193,0 	"/>
	<polygon class="st0" points="310,22.4645 310.461,22.6025 323.7354,0 323.193,0 	"/>
	<polygon class="st0" points="300,22.4645 300.461,22.6025 313.7354,0 313.193,0 	"/>
	<polygon class="st0" points="290,22.4645 290.461,22.6025 303.7354,0 303.193,0 	"/>
	<polygon class="st0" points="280,22.4645 280.461,22.6025 293.7354,0 293.193,0 	"/>
	<polygon class="st0" points="270,22.4645 270.461,22.6025 283.7354,0 283.193,0 	"/>
	<polygon class="st0" points="260,22.4645 260.461,22.6025 273.7354,0 273.193,0 	"/>
	<polygon class="st0" points="250,22.4645 250.461,22.6025 263.7354,0 263.193,0 	"/>
	<polygon class="st0" points="240,22.4645 240.461,22.6025 253.7354,0 253.193,0 	"/>
	<polygon class="st0" points="230,22.4645 230.461,22.6025 243.7354,0 243.193,0 	"/>
	<polygon class="st0" points="220,22.4645 220.461,22.6025 233.7353,0 233.193,0 	"/>
	<polygon class="st0" points="210,22.4645 210.461,22.6025 223.7353,0 223.193,0 	"/>
	<polygon class="st0" points="200,22.4645 200.461,22.6025 213.7353,0 213.193,0 	"/>
	<polygon class="st0" points="190,22.4645 190.461,22.6025 203.7353,0 203.193,0 	"/>
	<polygon class="st0" points="180,22.4645 180.461,22.6025 193.7353,0 193.193,0 	"/>
	<polygon class="st0" points="170,22.4645 170.461,22.6025 183.7353,0 183.193,0 	"/>
	<polygon class="st0" points="160,22.4645 160.461,22.6025 173.7353,0 173.193,0 	"/>
	<polygon class="st0" points="150,22.4645 150.461,22.6025 163.7353,0 163.193,0 	"/>
	<polygon class="st0" points="140,22.4645 140.461,22.6025 153.7353,0 153.193,0 	"/>
	<polygon class="st0" points="130,22.4645 130.461,22.6025 143.7353,0 143.193,0 	"/>
	<polygon class="st0" points="120,22.4645 120.461,22.6025 133.7353,0 133.193,0 	"/>
	<polygon class="st0" points="110,22.4645 110.461,22.6025 123.7353,0 123.193,0 	"/>
	<polygon class="st0" points="100,22.4645 100.461,22.6025 113.7353,0 113.193,0 	"/>
	<polygon class="st0" points="90,22.4645 90.461,22.6025 103.7353,0 103.193,0 	"/>
	<polygon class="st0" points="80,22.4645 80.461,22.6025 93.7353,0 93.193,0 	"/>
	<polygon class="st0" points="70,22.4645 70.461,22.6025 83.7353,0 83.193,0 	"/>
	<polygon class="st0" points="60,22.4645 60.461,22.6025 73.7353,0 73.193,0 	"/>
	<polygon class="st0" points="50,22.4645 50.461,22.6025 63.7353,0 63.193,0 	"/>
	<polygon class="st0" points="40,22.4645 40.461,22.6025 53.7353,0 53.193,0 	"/>
	<polygon class="st0" points="30,22.4645 30.461,22.6025 43.7353,0 43.193,0 	"/>
	<polygon class="st0" points="20,22.4645 20.461,22.6025 33.7353,0 33.193,0 	"/>
	<polygon class="st0" points="10,22.4645 10.461,22.6025 23.7353,0 23.193,0 	"/>
	<polygon class="st0" points="0,22.4645 0.461,22.6025 13.7353,0 13.193,0 	"/>
	<polygon class="st0" points="2580,22.4645 2580.4609,22.6025 2593.7354,0 2593.1929,0 	"/>
	<polygon class="st0" points="2570,22.4645 2570.4609,22.6025 2583.7354,0 2583.1929,0 	"/>
	<polygon class="st0" points="2560,22.4645 2560.4609,22.6025 2573.7354,0 2573.1929,0 	"/>
	<polygon class="st0" points="2550,22.4645 2550.4609,22.6025 2563.7354,0 2563.1929,0 	"/>
	<polygon class="st0" points="2540,22.4645 2540.4609,22.6025 2553.7354,0 2553.1929,0 	"/>
	<polygon class="st0" points="2530,22.4645 2530.4609,22.6025 2543.7354,0 2543.1929,0 	"/>
	<polygon class="st0" points="2520,22.4645 2520.4609,22.6025 2533.7354,0 2533.1929,0 	"/>
	<polygon class="st0" points="2510,22.4645 2510.4609,22.6025 2523.7354,0 2523.1929,0 	"/>
	<polygon class="st0" points="2500,22.4645 2500.4609,22.6025 2513.7354,0 2513.1929,0 	"/>
	<polygon class="st0" points="2490,22.4645 2490.4609,22.6025 2503.7354,0 2503.1929,0 	"/>
	<polygon class="st0" points="2480,22.4645 2480.4609,22.6025 2493.7354,0 2493.1929,0 	"/>
	<polygon class="st0" points="2470,22.4645 2470.4609,22.6025 2483.7354,0 2483.1929,0 	"/>
	<polygon class="st0" points="2460,22.4645 2460.4609,22.6025 2473.7354,0 2473.1929,0 	"/>
	<polygon class="st0" points="2450,22.4645 2450.4609,22.6025 2463.7354,0 2463.1929,0 	"/>
	<polygon class="st0" points="2440,22.4645 2440.4609,22.6025 2453.7354,0 2453.1929,0 	"/>
	<polygon class="st0" points="2430,22.4645 2430.4609,22.6025 2443.7354,0 2443.1929,0 	"/>
	<polygon class="st0" points="2420,22.4645 2420.4609,22.6025 2433.7354,0 2433.1929,0 	"/>
	<polygon class="st0" points="2410,22.4645 2410.4609,22.6025 2423.7354,0 2423.1929,0 	"/>
	<polygon class="st0" points="2400,22.4645 2400.4609,22.6025 2413.7354,0 2413.1929,0 	"/>
	<polygon class="st0" points="2390,22.4645 2390.4609,22.6025 2403.7354,0 2403.1929,0 	"/>
	<polygon class="st0" points="2380,22.4645 2380.4609,22.6025 2393.7354,0 2393.1929,0 	"/>
	<polygon class="st0" points="2370,22.4645 2370.4609,22.6025 2383.7354,0 2383.1929,0 	"/>
	<polygon class="st0" points="2360,22.4645 2360.4609,22.6025 2373.7354,0 2373.1929,0 	"/>
	<polygon class="st0" points="2350,22.4645 2350.4609,22.6025 2363.7354,0 2363.1929,0 	"/>
	<polygon class="st0" points="2340,22.4645 2340.4609,22.6025 2353.7354,0 2353.1929,0 	"/>
	<polygon class="st0" points="2330,22.4645 2330.4609,22.6025 2343.7354,0 2343.1929,0 	"/>
	<polygon class="st0" points="2320,22.4645 2320.4609,22.6025 2333.7354,0 2333.1929,0 	"/>
	<polygon class="st0" points="2310,22.4645 2310.4609,22.6025 2323.7354,0 2323.1929,0 	"/>
	<polygon class="st0" points="2300,22.4645 2300.4609,22.6025 2313.7354,0 2313.1929,0 	"/>
	<polygon class="st0" points="2290,22.4645 2290.4609,22.6025 2303.7354,0 2303.1929,0 	"/>
	<polygon class="st0" points="2280,22.4645 2280.4609,22.6025 2293.7354,0 2293.1929,0 	"/>
	<polygon class="st0" points="2270,22.4645 2270.4609,22.6025 2283.7354,0 2283.1929,0 	"/>
	<polygon class="st0" points="2260,22.4645 2260.4609,22.6025 2273.7354,0 2273.1929,0 	"/>
	<polygon class="st0" points="2250,22.4645 2250.4609,22.6025 2263.7354,0 2263.1929,0 	"/>
	<polygon class="st0" points="2240,22.4645 2240.4609,22.6025 2253.7354,0 2253.1929,0 	"/>
	<polygon class="st0" points="2230,22.4645 2230.4609,22.6025 2243.7354,0 2243.1929,0 	"/>
	<polygon class="st0" points="2220,22.4645 2220.4609,22.6025 2233.7354,0 2233.1929,0 	"/>
	<polygon class="st0" points="2210,22.4645 2210.4609,22.6025 2223.7354,0 2223.1929,0 	"/>
	<polygon class="st0" points="2200,22.4645 2200.4609,22.6025 2213.7354,0 2213.1929,0 	"/>
	<polygon class="st0" points="2190,22.4645 2190.4609,22.6025 2203.7354,0 2203.1929,0 	"/>
	<polygon class="st0" points="2180,22.4645 2180.4609,22.6025 2193.7354,0 2193.1929,0 	"/>
	<polygon class="st0" points="2170,22.4645 2170.4609,22.6025 2183.7354,0 2183.1929,0 	"/>
	<polygon class="st0" points="2160,22.4645 2160.4609,22.6025 2173.7354,0 2173.1929,0 	"/>
	<polygon class="st0" points="2150,22.4645 2150.4609,22.6025 2163.7354,0 2163.1929,0 	"/>
	<polygon class="st0" points="2140,22.4645 2140.4609,22.6025 2153.7354,0 2153.1929,0 	"/>
	<polygon class="st0" points="2130,22.4645 2130.4609,22.6025 2143.7354,0 2143.1929,0 	"/>
	<polygon class="st0" points="2120,22.4645 2120.4609,22.6025 2133.7354,0 2133.1929,0 	"/>
	<polygon class="st0" points="2110,22.4645 2110.4609,22.6025 2123.7354,0 2123.1929,0 	"/>
	<polygon class="st0" points="2100,22.4645 2100.4609,22.6025 2113.7354,0 2113.1929,0 	"/>
	<polygon class="st0" points="2090,22.4645 2090.4609,22.6025 2103.7354,0 2103.1929,0 	"/>
	<polygon class="st0" points="2080,22.4645 2080.4609,22.6025 2093.7354,0 2093.1929,0 	"/>
	<polygon class="st0" points="2070,22.4645 2070.4609,22.6025 2083.7354,0 2083.1929,0 	"/>
	<polygon class="st0" points="2060,22.4645 2060.4609,22.6025 2073.7354,0 2073.1929,0 	"/>
	<polygon class="st0" points="2050,22.4645 2050.4609,22.6025 2063.7354,0 2063.1929,0 	"/>
	<polygon class="st0" points="2040,22.4645 2040.4609,22.6025 2053.7354,0 2053.1929,0 	"/>
	<polygon class="st0" points="2030,22.4645 2030.4609,22.6025 2043.7354,0 2043.1929,0 	"/>
	<polygon class="st0" points="2020,22.4645 2020.4611,22.6025 2033.7354,0 2033.1929,0 	"/>
	<polygon class="st0" points="2010,22.4645 2010.4611,22.6025 2023.7354,0 2023.193,0 	"/>
	<polygon class="st0" points="2000,22.4645 2000.4611,22.6025 2013.7354,0 2013.193,0 	"/>
	<polygon class="st0" points="1990,22.4645 1990.4611,22.6025 2003.7354,0 2003.193,0 	"/>
	<polygon class="st0" points="1980,22.4645 1980.4611,22.6025 1993.7354,0 1993.193,0 	"/>
	<polygon class="st0" points="1970,22.4645 1970.4611,22.6025 1983.7354,0 1983.193,0 	"/>
	<polygon class="st0" points="1960,22.4645 1960.4611,22.6025 1973.7354,0 1973.193,0 	"/>
	<polygon class="st0" points="1950,22.4645 1950.4611,22.6025 1963.7354,0 1963.193,0 	"/>
	<polygon class="st0" points="1940,22.4645 1940.4611,22.6025 1953.7354,0 1953.193,0 	"/>
	<polygon class="st0" points="1930,22.4645 1930.4611,22.6025 1943.7354,0 1943.193,0 	"/>
	<polygon class="st0" points="1920,22.4645 1920.4611,22.6025 1933.7354,0 1933.193,0 	"/>
	<polygon class="st0" points="1910,22.4645 1910.4611,22.6025 1923.7354,0 1923.193,0 	"/>
	<polygon class="st0" points="1900,22.4645 1900.4611,22.6025 1913.7354,0 1913.193,0 	"/>
	<polygon class="st0" points="1890,22.4645 1890.4611,22.6025 1903.7354,0 1903.193,0 	"/>
	<polygon class="st0" points="1880,22.4645 1880.4611,22.6025 1893.7354,0 1893.193,0 	"/>
	<polygon class="st0" points="1870,22.4645 1870.4611,22.6025 1883.7354,0 1883.193,0 	"/>
	<polygon class="st0" points="1860,22.4645 1860.4611,22.6025 1873.7354,0 1873.193,0 	"/>
	<polygon class="st0" points="1850,22.4645 1850.4611,22.6025 1863.7354,0 1863.193,0 	"/>
	<polygon class="st0" points="1840,22.4645 1840.4611,22.6025 1853.7354,0 1853.193,0 	"/>
	<polygon class="st0" points="1830,22.4645 1830.4611,22.6025 1843.7354,0 1843.193,0 	"/>
	<polygon class="st0" points="1820,22.4645 1820.4611,22.6025 1833.7354,0 1833.193,0 	"/>
	<polygon class="st0" points="1810,22.4645 1810.4611,22.6025 1823.7354,0 1823.193,0 	"/>
	<polygon class="st0" points="1800,22.4645 1800.4611,22.6025 1813.7354,0 1813.193,0 	"/>
	<polygon class="st0" points="1790,22.4645 1790.4611,22.6025 1803.7354,0 1803.193,0 	"/>
	<polygon class="st0" points="1780,22.4645 1780.4611,22.6025 1793.7354,0 1793.193,0 	"/>
	<polygon class="st0" points="1770,22.4645 1770.4611,22.6025 1783.7354,0 1783.193,0 	"/>
	<polygon class="st0" points="1760,22.4645 1760.4611,22.6025 1773.7354,0 1773.193,0 	"/>
	<polygon class="st0" points="1750,22.4645 1750.4611,22.6025 1763.7354,0 1763.193,0 	"/>
	<polygon class="st0" points="1740,22.4645 1740.4611,22.6025 1753.7354,0 1753.193,0 	"/>
	<polygon class="st0" points="1730,22.4645 1730.4611,22.6025 1743.7354,0 1743.193,0 	"/>
	<polygon class="st0" points="1720,22.4645 1720.4611,22.6025 1733.7354,0 1733.193,0 	"/>
	<polygon class="st0" points="1710,22.4645 1710.4611,22.6025 1723.7354,0 1723.193,0 	"/>
	<polygon class="st0" points="1700,22.4645 1700.4611,22.6025 1713.7354,0 1713.193,0 	"/>
	<polygon class="st0" points="1690,22.4645 1690.4611,22.6025 1703.7354,0 1703.193,0 	"/>
	<polygon class="st0" points="1680,22.4645 1680.4611,22.6025 1693.7354,0 1693.193,0 	"/>
	<polygon class="st0" points="1670,22.4645 1670.4611,22.6025 1683.7354,0 1683.193,0 	"/>
	<polygon class="st0" points="1660,22.4645 1660.4611,22.6025 1673.7354,0 1673.193,0 	"/>
	<polygon class="st0" points="1650,22.4645 1650.4611,22.6025 1663.7354,0 1663.193,0 	"/>
	<polygon class="st0" points="1640,22.4645 1640.4611,22.6025 1653.7354,0 1653.193,0 	"/>
	<polygon class="st0" points="1630,22.4645 1630.4611,22.6025 1643.7354,0 1643.193,0 	"/>
	<polygon class="st0" points="1620,22.4645 1620.4611,22.6025 1633.7354,0 1633.193,0 	"/>
	<polygon class="st0" points="1610,22.4645 1610.4611,22.6025 1623.7354,0 1623.193,0 	"/>
	<polygon class="st0" points="1600,22.4645 1600.4611,22.6025 1613.7354,0 1613.193,0 	"/>
	<polygon class="st0" points="1590,22.4645 1590.4611,22.6025 1603.7354,0 1603.193,0 	"/>
	<polygon class="st0" points="1580,22.4645 1580.4611,22.6025 1593.7354,0 1593.193,0 	"/>
	<polygon class="st0" points="1570,22.4645 1570.4611,22.6025 1583.7354,0 1583.193,0 	"/>
	<polygon class="st0" points="1560,22.4645 1560.4611,22.6025 1573.7354,0 1573.193,0 	"/>
	<polygon class="st0" points="1550,22.4645 1550.4611,22.6025 1563.7354,0 1563.193,0 	"/>
	<polygon class="st0" points="1540,22.4645 1540.4611,22.6025 1553.7354,0 1553.193,0 	"/>
	<polygon class="st0" points="1530,22.4645 1530.4611,22.6025 1543.7354,0 1543.193,0 	"/>
	<polygon class="st0" points="1520,22.4645 1520.4611,22.6025 1533.7354,0 1533.193,0 	"/>
	<polygon class="st0" points="1510,22.4645 1510.4611,22.6025 1523.7354,0 1523.193,0 	"/>
	<polygon class="st0" points="1500,22.4645 1500.4611,22.6025 1513.7354,0 1513.193,0 	"/>
	<polygon class="st0" points="1490,22.4645 1490.4611,22.6025 1503.7354,0 1503.193,0 	"/>
	<polygon class="st0" points="1480,22.4645 1480.4611,22.6025 1493.7354,0 1493.193,0 	"/>
	<polygon class="st0" points="1470,22.4645 1470.4611,22.6025 1483.7354,0 1483.193,0 	"/>
	<polygon class="st0" points="1460,22.4645 1460.4611,22.6025 1473.7354,0 1473.193,0 	"/>
	<polygon class="st0" points="1450,22.4645 1450.4611,22.6025 1463.7354,0 1463.193,0 	"/>
	<polygon class="st0" points="1440,22.4645 1440.4611,22.6025 1453.7354,0 1453.193,0 	"/>
	<polygon class="st0" points="1430,22.4645 1430.4611,22.6025 1443.7354,0 1443.193,0 	"/>
	<polygon class="st0" points="1420,22.4645 1420.4611,22.6025 1433.7354,0 1433.193,0 	"/>
	<polygon class="st0" points="1410,22.4645 1410.4611,22.6025 1423.7354,0 1423.193,0 	"/>
	<polygon class="st0" points="1400,22.4645 1400.4611,22.6025 1413.7354,0 1413.193,0 	"/>
	<polygon class="st0" points="1390,22.4645 1390.4611,22.6025 1403.7354,0 1403.193,0 	"/>
	<polygon class="st0" points="1380,22.4645 1380.4611,22.6025 1393.7354,0 1393.193,0 	"/>
	<polygon class="st0" points="1370,22.4645 1370.4611,22.6025 1383.7354,0 1383.193,0 	"/>
	<polygon class="st0" points="1360,22.4645 1360.4611,22.6025 1373.7354,0 1373.193,0 	"/>
	<polygon class="st0" points="1350,22.4645 1350.4611,22.6025 1363.7354,0 1363.193,0 	"/>
	<polygon class="st0" points="1340,22.4645 1340.4611,22.6025 1353.7354,0 1353.193,0 	"/>
	<polygon class="st0" points="1330,22.4645 1330.4611,22.6025 1343.7354,0 1343.193,0 	"/>
	<polygon class="st0" points="1320,22.4645 1320.4611,22.6025 1333.7354,0 1333.193,0 	"/>
	<polygon class="st0" points="1310,22.4645 1310.4611,22.6025 1323.7354,0 1323.193,0 	"/>
	<polygon class="st0" points="1300,22.4645 1300.4611,22.6025 1313.7354,0 1313.193,0 	"/>
</g>
</svg>
