<svg xmlns="http://www.w3.org/2000/svg" width="72.7085" height="72.7006" viewBox="0 0 72.7085 72.7006"><defs><style>.cls-1{fill:#e515aa;}</style></defs><title>subscribe</title><g id="Layer_2" data-name="Layer 2"><g id="Layer_1-2" data-name="Layer 1"><path class="cls-1" d="M72.7036,27.9823l.0049-.0444-.021-.07a1.4849,1.4849,0,0,0-.06-.3135,1.7679,1.7679,0,0,0-.1157-.3311,1.4776,1.4776,0,0,0-.1474-.2256,1.1962,1.1962,0,0,0-.191-.2231l-11.42-8.9067V8.8612A4.09,4.09,0,0,0,56.668,4.7758h-12.78L38.8384.8553a4.0415,4.0415,0,0,0-4.9722,0L28.8145,4.7758h-12.78A4.09,4.09,0,0,0,11.95,8.8612v9.0064L.6582,26.6405l-.085.0864a1.5051,1.5051,0,0,0-.2109.2408,1.6836,1.6836,0,0,0-.19.2958,1.3883,1.3883,0,0,0-.085.252,1.5688,1.5688,0,0,0-.0645.3018L0,68.6219a4.04,4.04,0,0,0,.1582,1.07,1.6839,1.6839,0,0,0,1.75,2.3764,4.0359,4.0359,0,0,0,2.1758.6319H68.62a4.0341,4.0341,0,0,0,2.1783-.6387,1.783,1.783,0,0,0,.208.0176,1.6573,1.6573,0,0,0,1.49-.88,1.6831,1.6831,0,0,0,.0513-1.5064,4.06,4.06,0,0,0,.1572-1.0771ZM34.3413,4.7758l1.604-1.2486a.6442.6442,0,0,1,.8081.0034l1.604,1.2452Zm-.4741,38.4755L3.3887,66.9222V30.8241L22.166,45.4052a1.6957,1.6957,0,1,0,2.0786-2.68L4.8569,27.6708,11.95,22.16v8.2134a1.6951,1.6951,0,0,0,3.39,0V8.8612a.6954.6954,0,0,1,.6949-.6948H56.6675a.6958.6958,0,0,1,.6953.6948V30.3729a1.6948,1.6948,0,0,0,3.39,0V22.16l7.0928,5.5113L48.4219,42.7533a1.6956,1.6956,0,0,0,2.08,2.6782L69.3135,30.8241V66.9222l-30.4776-23.67A4.042,4.042,0,0,0,33.8672,43.2513Zm2.0771,2.6748a.6469.6469,0,0,1,.8081.0025L66.8633,69.31H5.8394Z"/><path class="cls-1" d="M24.4,16.5316H48.3022a1.6951,1.6951,0,0,0,0-3.39H24.4a1.6951,1.6951,0,0,0,0,3.39Z"/><path class="cls-1" d="M49.9971,22.0072a1.6971,1.6971,0,0,0-1.6949-1.6953H24.4a1.6951,1.6951,0,0,0,0,3.39H48.3022A1.6967,1.6967,0,0,0,49.9971,22.0072Z"/><path class="cls-1" d="M49.9971,29.1776a1.6967,1.6967,0,0,0-1.6949-1.6948H37.5464a1.6951,1.6951,0,0,0,0,3.39H48.3022A1.6971,1.6971,0,0,0,49.9971,29.1776Z"/></g></g></svg>