<svg xmlns="http://www.w3.org/2000/svg" width="323.7556" height="452.5392" viewBox="0 0 323.7556 452.5392"><defs><style>.cls-1{fill:#1b0d20;}</style></defs><title>title_mobile</title><g id="Layer_2" data-name="Layer 2"><g id="Layer_1-2" data-name="Layer 1"><path class="cls-1" d="M199.9644,76.7075A26.297,26.297,0,0,0,197.4,87.2163l6,.01a20.3983,20.3983,0,0,1,2.03-8.0357c2.4629-4.875,6.8447-7.3467,13.0234-7.3467v-6C207.584,65.8442,202.3994,71.7515,199.9644,76.7075Z"/><path class="cls-1" d="M227.6768,17.7114h-.3921a11.7406,11.7406,0,0,0-6.0385,1.6758A11.8445,11.8445,0,0,0,209.623,9.7227h-.3916a11.74,11.74,0,0,0-6.0817,1.702C201.9811,4.9177,196.827,0,190.6611,0c-6.124,0-11.25,4.8515-12.464,11.2929a11.4113,11.4113,0,0,0-5.7728-1.57h-.3769A11.5109,11.5109,0,0,0,160.5493,21.22v18.664a10.9933,10.9933,0,0,0-9.0244,10.7979v24.97c0,14.0606,13.6631,24.2373,18.3076,27.29v22.9853H154.9209l32.64,85.2h16.56l32.28-85.2H221.4541V102.0615c4.61-2.9931,18.0537-12.8188,18.0537-25.6084V29.5425A11.8447,11.8447,0,0,0,227.6768,17.7114ZM203.4,42.6992V21.5537a5.8375,5.8375,0,0,1,5.831-5.831h.3916a5.8375,5.8375,0,0,1,5.8311,5.831V42.7129a5.8375,5.8375,0,0,1-5.8311,5.8306h-.3916a5.8375,5.8375,0,0,1-5.831-5.8306ZM183.9219,21.22V14.2256C183.9219,9.69,186.9453,6,190.6611,6S197.4,9.69,197.4,14.2256V40.5691a11.9488,11.9488,0,0,0-4.4678-.87h-9.0107Zm-17.3726,0a5.504,5.504,0,0,1,5.4981-5.4975h.3769a5.5039,5.5039,0,0,1,5.4976,5.4975v18.479H166.5493Zm66.9585,55.2329c0,11.6348-16.3872,21.2451-16.55,21.3394l-1.5034.8657V126.496l-19.6133,59.9117-20.0086-60.3851L175.83,99.5547l-1.4917-.8677c-.1685-.0976-16.813-9.9287-16.813-23.0347v-24.97a4.9886,4.9886,0,0,1,4.9829-4.9829h30.4248a6.0269,6.0269,0,1,1,0,12.0537H174.22v6h18.7124A12.0352,12.0352,0,0,0,204.7877,53.67a11.7591,11.7591,0,0,0,4.4437.8736h.3916a11.7417,11.7417,0,0,0,5.9847-1.6429,11.8387,11.8387,0,0,0,11.677,10.02h.3921a11.7449,11.7449,0,0,0,5.831-1.55Zm0-25.56v.1958a5.8375,5.8375,0,0,1-5.831,5.831h-.3921a5.8374,5.8374,0,0,1-5.8306-5.831V29.5425a5.8374,5.8374,0,0,1,5.8306-5.8311h.3921a5.8375,5.8375,0,0,1,5.831,5.8311Z"/><path class="cls-1" d="M61.14,168.8281a29.6785,29.6785,0,0,0-8.34-4.92,102.3682,102.3682,0,0,0-11.04-3.66q-4.4407-1.1982-7.8-2.16a30.8446,30.8446,0,0,1-5.58-2.1,10.03,10.03,0,0,1-3.36-2.58,5.6114,5.6114,0,0,1-1.14-3.6q0-7.08,10.56-7.08a28.2523,28.2523,0,0,1,7.68,1.08,52.26,52.26,0,0,1,7.08,2.52,47.5905,47.5905,0,0,1,5.4,2.76,12.0563,12.0563,0,0,1,2.52,1.8l8.64-16.32q-2.88-1.6788-6.3-3.36a59.4628,59.4628,0,0,0-7.38-3,66.1946,66.1946,0,0,0-8.28-2.16,45.91,45.91,0,0,0-8.76-.84,39.8146,39.8146,0,0,0-12.06,1.8,29.7859,29.7859,0,0,0-10.02,5.34,25.6667,25.6667,0,0,0-6.84,8.7,26.7555,26.7555,0,0,0-2.52,11.88,23.3841,23.3841,0,0,0,1.38,8.4,17.6255,17.6255,0,0,0,4.2,6.36,26.8662,26.8662,0,0,0,7.14,4.86,70.88,70.88,0,0,0,10.2,3.9q4.4378,1.322,8.22,2.4a46.9284,46.9284,0,0,1,6.54,2.34,14.7253,14.7253,0,0,1,4.32,2.82,5.3712,5.3712,0,0,1,1.56,3.96q0,6.3618-10.44,6.36a36.4262,36.4262,0,0,1-9.72-1.32,66.362,66.362,0,0,1-8.7-3,46.4314,46.4314,0,0,1-6.54-3.36,16.73,16.73,0,0,1-3.12-2.28L0,201.5278a50.46,50.46,0,0,0,8.1,4.44,75.96,75.96,0,0,0,9.06,3.3,69.4342,69.4342,0,0,0,9.6,2.1,66.2728,66.2728,0,0,0,9.6.72,50.89,50.89,0,0,0,11.88-1.38,30.1569,30.1569,0,0,0,10.2-4.44,22.7772,22.7772,0,0,0,7.14-8.04,25.262,25.262,0,0,0,2.7-12.18,24.8064,24.8064,0,0,0-1.86-10.08A19.9553,19.9553,0,0,0,61.14,168.8281Z"/><path class="cls-1" d="M107.52,125.9277l-31.08,85.2H96.6l6.48-19.08H129.6l6.6,19.08h20.16l-31.08-85.2Zm-1.32,52.56,10.2-30.12,9.96,30.12Z"/><polygon class="cls-1" points="270 175.728 303.601 175.728 303.601 159.768 270 159.768 270 143.208 309.121 143.208 309.121 125.928 250.321 125.928 250.321 211.128 310.201 211.128 310.201 193.848 270 193.848 270 175.728"/><polygon class="cls-1" points="33.721 264.394 59.761 264.394 59.761 332.314 79.441 332.314 79.441 264.394 105.361 264.394 105.361 247.113 33.721 247.113 33.721 264.394"/><polygon class="cls-1" points="174.599 280.113 140.639 280.113 140.639 247.113 120.96 247.113 120.96 332.314 140.639 332.314 140.639 297.394 174.599 297.394 174.599 332.314 194.28 332.314 194.28 247.113 174.599 247.113 174.599 280.113"/><polygon class="cls-1" points="236.279 296.914 269.88 296.914 269.88 280.954 236.279 280.954 236.279 264.394 275.399 264.394 275.399 247.113 216.599 247.113 216.599 332.314 276.479 332.314 276.479 315.034 236.279 315.034 236.279 296.914"/><path class="cls-1" d="M76.2556,379.819a38.0737,38.0737,0,0,0-13.26-9.12,47.0613,47.0613,0,0,0-18.48-3.36h-31.8v85.2h31.8a47.7637,47.7637,0,0,0,17.46-3.06,38.4915,38.4915,0,0,0,13.4405-8.64,37.7954,37.7954,0,0,0,8.58-13.44,49.01,49.01,0,0,0,3-17.58,49.7532,49.7532,0,0,0-2.7-16.5A38.05,38.05,0,0,0,76.2556,379.819Zm-10.8,40.14a24.3166,24.3166,0,0,1-4.32,8.04,19.4088,19.4088,0,0,1-7.02,5.34,22.8436,22.8436,0,0,1-9.6,1.92h-12.12v-50.64h12.12a23.862,23.862,0,0,1,9.48,1.8,19.105,19.105,0,0,1,7.0792,5.16,23.0683,23.0683,0,0,1,4.3808,7.98,33.1358,33.1358,0,0,1,1.5,10.26A32.7069,32.7069,0,0,1,65.4558,419.9591Z"/><path class="cls-1" d="M124.7957,367.339l-31.08,85.2h20.16l6.48-19.08h26.5205l6.6,19.08h20.16l-31.08-85.2Zm-1.32,52.56,10.2-30.12,9.96,30.12Z"/><polygon class="cls-1" points="244.555 367.339 172.916 367.339 172.916 384.619 198.956 384.619 198.956 452.539 218.635 452.539 218.635 384.619 244.555 384.619 244.555 367.339"/><path class="cls-1" d="M292.6755,367.339h-17.76l-31.08,85.2h20.16l6.48-19.08h26.52l6.6,19.08h20.16Zm-19.08,52.56,10.2-30.12,9.96,30.12Z"/></g></g></svg>