<svg xmlns="http://www.w3.org/2000/svg" width="118.4646" height="118.4646" viewBox="0 0 118.4646 118.4646"><defs><style>.cls-1{fill:#e515aa;}</style></defs><title>icon3</title><g id="Layer_2" data-name="Layer 2"><g id="Layer_1-2" data-name="Layer 1"><path class="cls-1" d="M101.116,17.3486A59.2325,59.2325,0,0,0,17.3486,101.116,59.2325,59.2325,0,0,0,101.116,17.3486ZM59.2323,113.745A54.5127,54.5127,0,1,1,113.745,59.2323,54.5744,54.5744,0,0,1,59.2323,113.745Z"/><path class="cls-1" d="M59.2323,9.3016A49.9307,49.9307,0,1,0,109.163,59.2323,49.9872,49.9872,0,0,0,59.2323,9.3016ZM99.5079,79.7607l-6.8052-3.9292a2.36,2.36,0,1,0-2.36,4.0872L97.14,83.8429A45.5766,45.5766,0,0,1,83.8433,97.1393l-3.9241-6.7969a2.36,2.36,0,0,0-4.0873,2.36l3.9292,6.8053a44.8864,44.8864,0,0,1-18.1685,4.8739v-7.864a2.36,2.36,0,0,0-4.72,0v7.864a44.8877,44.8877,0,0,1-18.1685-4.8739l3.9292-6.8053a2.36,2.36,0,0,0-4.0873-2.36l-3.9241,6.7969A45.573,45.573,0,0,1,21.3257,83.8429l6.7969-3.9242a2.36,2.36,0,0,0-2.36-4.0872l-6.8062,3.9292a44.8868,44.8868,0,0,1-4.8739-18.1686h7.864a2.36,2.36,0,0,0,0-4.72h-7.864a44.8877,44.8877,0,0,1,4.8739-18.1686l6.8053,3.9292a2.36,2.36,0,1,0,2.36-4.0872l-6.7969-3.9242A45.5721,45.5721,0,0,1,34.6213,21.3252l3.9241,6.7969a2.36,2.36,0,1,0,4.0873-2.36l-3.9288-6.8057a44.886,44.886,0,0,1,18.1686-4.8739v7.864a2.36,2.36,0,0,0,4.72,0v-7.864a44.8877,44.8877,0,0,1,18.1686,4.8739l-3.9292,6.8053a2.36,2.36,0,1,0,4.0872,2.36l3.9242-6.7969A45.5721,45.5721,0,0,1,97.1394,34.6213l-6.797,3.9241a2.36,2.36,0,1,0,2.36,4.0873l6.8052-3.9292a44.8864,44.8864,0,0,1,4.8739,18.1685h-7.864a2.36,2.36,0,1,0,0,4.72h7.864A44.8747,44.8747,0,0,1,99.5079,79.7607Z"/><path class="cls-1" d="M61.5921,52.6621V37.5216a2.36,2.36,0,0,0-4.72,0V52.6621a6.9742,6.9742,0,0,0-2.9665,11.076L50.16,70.2261a2.36,2.36,0,1,0,4.0872,2.36l3.7439-6.4847a6.9806,6.9806,0,0,0,3.6007-13.4391Zm-2.36,8.8319a2.2617,2.2617,0,1,1,2.2617-2.2617A2.2643,2.2643,0,0,1,59.2323,61.494Z"/><path class="cls-1" d="M59.2323,27.3743a2.36,2.36,0,0,0-2.36,2.36v.9441a2.36,2.36,0,1,0,4.72,0v-.9441A2.36,2.36,0,0,0,59.2323,27.3743Z"/></g></g></svg>