<svg xmlns="http://www.w3.org/2000/svg" width="132.378" height="108.4735" viewBox="0 0 132.378 108.4735"><defs><style>.cls-1{fill:#e515aa;}</style></defs><title>icon4</title><g id="Layer_2" data-name="Layer 2"><g id="Layer_1-2" data-name="Layer 1"><path class="cls-1" d="M104.9629,36.5174A37.0129,37.0129,0,0,0,31.7275,29.42c-.1192-.0013-.2374-.0023-.3553-.0023a31.3724,31.3724,0,0,0,0,62.7447H42.8868a2.8231,2.8231,0,0,0,0-5.6462H31.3725a25.726,25.726,0,1,1,0-51.452c.7557,0,1.5546.04,2.4428.1241a2.826,2.826,0,0,0,3.0617-2.4294A31.3664,31.3664,0,0,1,99.32,37.0314c0,.6231-.1161,2.2344-.1161,2.2344a2.8235,2.8235,0,0,0,3.0985,3.0079,22.5361,22.5361,0,0,1,2.2514-.1137,22.1778,22.1778,0,1,1,0,44.3556H91.91a2.8231,2.8231,0,1,0,0,5.6462h12.6436a27.8237,27.8237,0,0,0,.4091-55.6444Z"/><path class="cls-1" d="M67.9354,13.2688A23.8132,23.8132,0,0,0,44.43,33.7892a2.8232,2.8232,0,0,0,5.5945.7632A18.1453,18.1453,0,0,1,67.9354,18.9153a2.8233,2.8233,0,0,0,0-5.6465Z"/><path class="cls-1" d="M80.9984,94.1265a2.8234,2.8234,0,0,0-3.9864-.2244l-6.7908,6.0664V65.2371a2.8231,2.8231,0,0,0-5.6462,0V99.9682l-6.7906-6.0664a2.8231,2.8231,0,0,0-3.7616,4.2108l10.2688,9.1741a4.6585,4.6585,0,0,0,6.2122,0l10.2694-9.1742A2.823,2.823,0,0,0,80.9984,94.1265Z"/></g></g></svg>