<svg xmlns="http://www.w3.org/2000/svg" width="153.043" height="33.4835" viewBox="0 0 153.043 33.4835"><defs><style>.cls-1{fill:#fff;}</style></defs><title>copyright</title><g id="Layer_2" data-name="Layer 2"><g id="Layer_1-2" data-name="Layer 1"><path class="cls-1" d="M76.5044.0038a16.523,16.523,0,0,1,16.7623,16.771A16.5655,16.5655,0,0,1,76.518,33.4835a16.74,16.74,0,0,1-.0136-33.48ZM90.2322,16.77A13.5773,13.5773,0,0,0,76.5991,3.0383,13.7672,13.7672,0,0,0,62.8216,16.6861a13.8347,13.8347,0,0,0,13.69,13.7609C83.3669,30.5193,90.4107,24.728,90.2322,16.77Z"/><path class="cls-1" d="M68.9876,19.4453h4.0939a1.2489,1.2489,0,0,1,.1189.2873,2.84,2.84,0,0,0,2.4782,2.6055c1.6341.314,3.1125.0427,4.0032-1.4521A7.8008,7.8008,0,0,0,79.9,13.0611c-.71-1.43-2.259-1.9039-4.1261-1.5281a2.9834,2.9834,0,0,0-2.5295,2.8l.9982.0835-3.1673,3.0419L68.019,14.3929h1.0117c.07-.2509.127-.4346.172-.6213A7.2549,7.2549,0,0,1,77.94,8.0171a8.2468,8.2468,0,0,1,7.0556,7.7949,9.577,9.577,0,0,1-2.0208,7.2006,8.5872,8.5872,0,0,1-9.9219,2.2444A6.9088,6.9088,0,0,1,68.9876,19.4453Z"/><path class="cls-1" d="M136.3226.0039a16.74,16.74,0,1,1-16.7591,16.5934A16.7334,16.7334,0,0,1,136.3226.0039Zm-.0013,30.6A13.86,13.86,0,1,0,122.4435,16.74,13.8894,13.8894,0,0,0,136.3213,30.6035Z"/><path class="cls-1" d="M138.8516,27.5379h-5.0522V19.5715l-1.5353-.1111c0-1.0176,0-2.0213,0-3.025,0-1.1549-.0123-2.31.0053-3.4647.017-1.1194.3738-1.474,1.4687-1.4786,1.7746-.0076,3.5492.0033,5.3238-.0027.7429-.0025,1.2326.3564,1.2453,1.0844.04,2.2749.0146,4.5508.0146,6.896l-1.47.0829Z"/><path class="cls-1" d="M133.9006,8.3214a2.403,2.403,0,1,1,2.3826,2.4485A2.3855,2.3855,0,0,1,133.9006,8.3214Z"/><path class="cls-1" d="M16.7992.0038A16.52,16.52,0,0,1,33.49,16.83,16.6674,16.6674,0,0,1,16.67,33.4835,16.8476,16.8476,0,0,1,0,16.7034C-.0352,8.2046,7.091-.205,16.7992.0038ZM30.4565,16.8253A13.6558,13.6558,0,0,0,16.889,3.0225C8.4951,2.893,2.9905,10.2686,3.03,16.684A13.9139,13.9139,0,0,0,16.682,30.4119C23.35,30.4518,30.55,25.1823,30.4565,16.8253Z"/><path class="cls-1" d="M16.5442,13.983,14.4511,15.07a7.3606,7.3606,0,0,0-1.1374-1.02,1.85,1.85,0,0,0-2.7591,1.012,8.8324,8.8324,0,0,0-.0777,3.0578,1.7247,1.7247,0,0,0,1.5862,1.5256,2.0815,2.0815,0,0,0,2.2542-.9646c.0717-.1159.15-.2276.26-.3941l1.9489.99a4.7708,4.7708,0,0,1-5.428,2.5663A4.56,4.56,0,0,1,7.24,17.2051c-.1489-2.7891,1.11-4.8188,3.3924-5.471A5.04,5.04,0,0,1,16.5442,13.983Z"/><path class="cls-1" d="M24.2516,18.29l1.9688,1a4.9493,4.9493,0,0,1-5.7376,2.5117c-2.1973-.4811-3.5457-2.3258-3.5733-4.8883-.0291-2.7032,1.2883-4.652,3.5234-5.2122a4.8882,4.8882,0,0,1,5.7542,2.2858l-2.0493,1.0851a7.2827,7.2827,0,0,0-1.1355-1.0211,1.8881,1.8881,0,0,0-2.8161,1.0584,7.912,7.912,0,0,0-.1217,2.82,1.8683,1.8683,0,0,0,1.621,1.7139C22.7764,19.8275,23.3918,19.5153,24.2516,18.29Z"/></g></g></svg>