<svg xmlns="http://www.w3.org/2000/svg" width="2626.9282" height="45.2051" viewBox="0 0 2626.9282 45.2051"><defs><style>.cls-1{fill:#1b0d20;}</style></defs><title>divider_thick_v3</title><g id="Layer_2" data-name="Layer 2"><g id="Layer_1-2" data-name="Layer 1"><polygon class="cls-1" points="1300.461 45.205 1300 45.067 1326.467 0 1326.928 0.139 1300.461 45.205"/><polygon class="cls-1" points="1290.461 45.205 1290 45.067 1316.467 0 1316.928 0.139 1290.461 45.205"/><polygon class="cls-1" points="1280.461 45.205 1280 45.067 1306.467 0 1306.928 0.139 1280.461 45.205"/><polygon class="cls-1" points="1270.461 45.205 1270 45.067 1296.467 0 1296.928 0.139 1270.461 45.205"/><polygon class="cls-1" points="1260.461 45.205 1260 45.067 1286.467 0 1286.928 0.139 1260.461 45.205"/><polygon class="cls-1" points="1250.461 45.205 1250 45.067 1276.467 0 1276.928 0.139 1250.461 45.205"/><polygon class="cls-1" points="1240.461 45.205 1240 45.067 1266.467 0 1266.928 0.139 1240.461 45.205"/><polygon class="cls-1" points="1230.461 45.205 1230 45.067 1256.467 0 1256.928 0.139 1230.461 45.205"/><polygon class="cls-1" points="1220.461 45.205 1220 45.067 1246.467 0 1246.928 0.139 1220.461 45.205"/><polygon class="cls-1" points="1210.461 45.205 1210 45.067 1236.467 0 1236.928 0.139 1210.461 45.205"/><polygon class="cls-1" points="1200.461 45.205 1200 45.067 1226.467 0 1226.928 0.139 1200.461 45.205"/><polygon class="cls-1" points="1190.461 45.205 1190 45.067 1216.467 0 1216.928 0.139 1190.461 45.205"/><polygon class="cls-1" points="1180.461 45.205 1180 45.067 1206.467 0 1206.928 0.139 1180.461 45.205"/><polygon class="cls-1" points="1170.461 45.205 1170 45.067 1196.467 0 1196.928 0.139 1170.461 45.205"/><polygon class="cls-1" points="1160.461 45.205 1160 45.067 1186.467 0 1186.928 0.139 1160.461 45.205"/><polygon class="cls-1" points="1150.461 45.205 1150 45.067 1176.467 0 1176.928 0.139 1150.461 45.205"/><polygon class="cls-1" points="1140.461 45.205 1140 45.067 1166.467 0 1166.928 0.139 1140.461 45.205"/><polygon class="cls-1" points="1130.461 45.205 1130 45.067 1156.467 0 1156.928 0.139 1130.461 45.205"/><polygon class="cls-1" points="1120.461 45.205 1120 45.067 1146.467 0 1146.928 0.139 1120.461 45.205"/><polygon class="cls-1" points="1110.461 45.205 1110 45.067 1136.467 0 1136.928 0.139 1110.461 45.205"/><polygon class="cls-1" points="1100.461 45.205 1100 45.067 1126.467 0 1126.928 0.139 1100.461 45.205"/><polygon class="cls-1" points="1090.461 45.205 1090 45.067 1116.467 0 1116.928 0.139 1090.461 45.205"/><polygon class="cls-1" points="1080.461 45.205 1080 45.067 1106.467 0 1106.928 0.139 1080.461 45.205"/><polygon class="cls-1" points="1070.461 45.205 1070 45.067 1096.467 0 1096.928 0.139 1070.461 45.205"/><polygon class="cls-1" points="1060.461 45.205 1060 45.067 1086.467 0 1086.928 0.139 1060.461 45.205"/><polygon class="cls-1" points="1050.461 45.205 1050 45.067 1076.467 0 1076.928 0.139 1050.461 45.205"/><polygon class="cls-1" points="1040.461 45.205 1040 45.067 1066.467 0 1066.928 0.139 1040.461 45.205"/><polygon class="cls-1" points="1030.461 45.205 1030 45.067 1056.467 0 1056.928 0.139 1030.461 45.205"/><polygon class="cls-1" points="1020.461 45.205 1020 45.067 1046.467 0 1046.928 0.139 1020.461 45.205"/><polygon class="cls-1" points="1010.461 45.205 1010 45.067 1036.467 0 1036.928 0.139 1010.461 45.205"/><polygon class="cls-1" points="1000.461 45.205 1000 45.067 1026.467 0 1026.928 0.139 1000.461 45.205"/><polygon class="cls-1" points="990.461 45.205 990 45.067 1016.467 0 1016.928 0.139 990.461 45.205"/><polygon class="cls-1" points="980.461 45.205 980 45.067 1006.467 0 1006.928 0.139 980.461 45.205"/><polygon class="cls-1" points="970.461 45.205 970 45.067 996.467 0 996.928 0.139 970.461 45.205"/><polygon class="cls-1" points="960.461 45.205 960 45.067 986.467 0 986.928 0.139 960.461 45.205"/><polygon class="cls-1" points="950.461 45.205 950 45.067 976.467 0 976.928 0.139 950.461 45.205"/><polygon class="cls-1" points="940.461 45.205 940 45.067 966.467 0 966.928 0.139 940.461 45.205"/><polygon class="cls-1" points="930.461 45.205 930 45.067 956.467 0 956.928 0.139 930.461 45.205"/><polygon class="cls-1" points="920.461 45.205 920 45.067 946.467 0 946.928 0.139 920.461 45.205"/><polygon class="cls-1" points="910.461 45.205 910 45.067 936.467 0 936.928 0.139 910.461 45.205"/><polygon class="cls-1" points="900.461 45.205 900 45.067 926.467 0 926.928 0.139 900.461 45.205"/><polygon class="cls-1" points="890.461 45.205 890 45.067 916.467 0 916.928 0.139 890.461 45.205"/><polygon class="cls-1" points="880.461 45.205 880 45.067 906.467 0 906.928 0.139 880.461 45.205"/><polygon class="cls-1" points="870.461 45.205 870 45.067 896.467 0 896.928 0.139 870.461 45.205"/><polygon class="cls-1" points="860.461 45.205 860 45.067 886.467 0 886.928 0.139 860.461 45.205"/><polygon class="cls-1" points="850.461 45.205 850 45.067 876.467 0 876.928 0.139 850.461 45.205"/><polygon class="cls-1" points="840.461 45.205 840 45.067 866.467 0 866.928 0.139 840.461 45.205"/><polygon class="cls-1" points="830.461 45.205 830 45.067 856.467 0 856.928 0.139 830.461 45.205"/><polygon class="cls-1" points="820.461 45.205 820 45.067 846.467 0 846.928 0.139 820.461 45.205"/><polygon class="cls-1" points="810.461 45.205 810 45.067 836.467 0 836.928 0.139 810.461 45.205"/><polygon class="cls-1" points="800.461 45.205 800 45.067 826.467 0 826.928 0.139 800.461 45.205"/><polygon class="cls-1" points="790.461 45.205 790 45.067 816.467 0 816.928 0.139 790.461 45.205"/><polygon class="cls-1" points="780.461 45.205 780 45.067 806.467 0 806.928 0.139 780.461 45.205"/><polygon class="cls-1" points="770.461 45.205 770 45.067 796.467 0 796.928 0.139 770.461 45.205"/><polygon class="cls-1" points="760.461 45.205 760 45.067 786.467 0 786.928 0.139 760.461 45.205"/><polygon class="cls-1" points="750.461 45.205 750 45.067 776.467 0 776.928 0.139 750.461 45.205"/><polygon class="cls-1" points="740.461 45.205 740 45.067 766.467 0 766.928 0.139 740.461 45.205"/><polygon class="cls-1" points="730.461 45.205 730 45.067 756.467 0 756.928 0.139 730.461 45.205"/><polygon class="cls-1" points="720.461 45.205 720 45.067 746.467 0 746.928 0.139 720.461 45.205"/><polygon class="cls-1" points="710.461 45.205 710 45.067 736.467 0 736.928 0.139 710.461 45.205"/><polygon class="cls-1" points="700.461 45.205 700 45.067 726.467 0 726.928 0.139 700.461 45.205"/><polygon class="cls-1" points="690.461 45.205 690 45.067 716.467 0 716.928 0.139 690.461 45.205"/><polygon class="cls-1" points="680.461 45.205 680 45.067 706.467 0 706.928 0.139 680.461 45.205"/><polygon class="cls-1" points="670.461 45.205 670 45.067 696.467 0 696.928 0.139 670.461 45.205"/><polygon class="cls-1" points="660.461 45.205 660 45.067 686.467 0 686.928 0.139 660.461 45.205"/><polygon class="cls-1" points="650.461 45.205 650 45.067 676.467 0 676.928 0.139 650.461 45.205"/><polygon class="cls-1" points="640.461 45.205 640 45.067 666.467 0 666.928 0.139 640.461 45.205"/><polygon class="cls-1" points="630.461 45.205 630 45.067 656.467 0 656.928 0.139 630.461 45.205"/><polygon class="cls-1" points="620.461 45.205 620 45.067 646.467 0 646.928 0.139 620.461 45.205"/><polygon class="cls-1" points="610.461 45.205 610 45.067 636.467 0 636.928 0.139 610.461 45.205"/><polygon class="cls-1" points="600.461 45.205 600 45.067 626.467 0 626.928 0.139 600.461 45.205"/><polygon class="cls-1" points="590.461 45.205 590 45.067 616.467 0 616.928 0.139 590.461 45.205"/><polygon class="cls-1" points="580.461 45.205 580 45.067 606.467 0 606.928 0.139 580.461 45.205"/><polygon class="cls-1" points="570.461 45.205 570 45.067 596.467 0 596.928 0.139 570.461 45.205"/><polygon class="cls-1" points="560.461 45.205 560 45.067 586.467 0 586.928 0.139 560.461 45.205"/><polygon class="cls-1" points="550.461 45.205 550 45.067 576.467 0 576.928 0.139 550.461 45.205"/><polygon class="cls-1" points="540.461 45.205 540 45.067 566.467 0 566.928 0.139 540.461 45.205"/><polygon class="cls-1" points="530.461 45.205 530 45.067 556.467 0 556.928 0.139 530.461 45.205"/><polygon class="cls-1" points="520.461 45.205 520 45.067 546.467 0 546.928 0.139 520.461 45.205"/><polygon class="cls-1" points="510.461 45.205 510 45.067 536.467 0 536.928 0.139 510.461 45.205"/><polygon class="cls-1" points="500.461 45.205 500 45.067 526.467 0 526.928 0.139 500.461 45.205"/><polygon class="cls-1" points="490.461 45.205 490 45.067 516.467 0 516.928 0.139 490.461 45.205"/><polygon class="cls-1" points="480.461 45.205 480 45.067 506.467 0 506.928 0.139 480.461 45.205"/><polygon class="cls-1" points="470.461 45.205 470 45.067 496.467 0 496.928 0.139 470.461 45.205"/><polygon class="cls-1" points="460.461 45.205 460 45.067 486.467 0 486.928 0.139 460.461 45.205"/><polygon class="cls-1" points="450.461 45.205 450 45.067 476.467 0 476.928 0.139 450.461 45.205"/><polygon class="cls-1" points="440.461 45.205 440 45.067 466.467 0 466.928 0.139 440.461 45.205"/><polygon class="cls-1" points="430.461 45.205 430 45.067 456.467 0 456.928 0.139 430.461 45.205"/><polygon class="cls-1" points="420.461 45.205 420 45.067 446.467 0 446.928 0.139 420.461 45.205"/><polygon class="cls-1" points="410.461 45.205 410 45.067 436.467 0 436.928 0.139 410.461 45.205"/><polygon class="cls-1" points="400.461 45.205 400 45.067 426.467 0 426.928 0.139 400.461 45.205"/><polygon class="cls-1" points="390.461 45.205 390 45.067 416.467 0 416.928 0.139 390.461 45.205"/><polygon class="cls-1" points="380.461 45.205 380 45.067 406.467 0 406.928 0.139 380.461 45.205"/><polygon class="cls-1" points="370.461 45.205 370 45.067 396.467 0 396.928 0.139 370.461 45.205"/><polygon class="cls-1" points="360.461 45.205 360 45.067 386.467 0 386.928 0.139 360.461 45.205"/><polygon class="cls-1" points="350.461 45.205 350 45.067 376.467 0 376.928 0.139 350.461 45.205"/><polygon class="cls-1" points="340.461 45.205 340 45.067 366.467 0 366.928 0.139 340.461 45.205"/><polygon class="cls-1" points="330.461 45.205 330 45.067 356.467 0 356.928 0.139 330.461 45.205"/><polygon class="cls-1" points="320.461 45.205 320 45.067 346.467 0 346.928 0.139 320.461 45.205"/><polygon class="cls-1" points="310.461 45.205 310 45.067 336.467 0 336.928 0.139 310.461 45.205"/><polygon class="cls-1" points="300.461 45.205 300 45.067 326.467 0 326.928 0.139 300.461 45.205"/><polygon class="cls-1" points="290.461 45.205 290 45.067 316.467 0 316.928 0.139 290.461 45.205"/><polygon class="cls-1" points="280.461 45.205 280 45.067 306.467 0 306.928 0.139 280.461 45.205"/><polygon class="cls-1" points="270.461 45.205 270 45.067 296.467 0 296.928 0.139 270.461 45.205"/><polygon class="cls-1" points="260.461 45.205 260 45.067 286.467 0 286.928 0.139 260.461 45.205"/><polygon class="cls-1" points="250.461 45.205 250 45.067 276.467 0 276.928 0.139 250.461 45.205"/><polygon class="cls-1" points="240.461 45.205 240 45.067 266.467 0 266.928 0.139 240.461 45.205"/><polygon class="cls-1" points="230.461 45.205 230 45.067 256.467 0 256.928 0.139 230.461 45.205"/><polygon class="cls-1" points="220.461 45.205 220 45.067 246.467 0 246.928 0.139 220.461 45.205"/><polygon class="cls-1" points="210.461 45.205 210 45.067 236.467 0 236.928 0.139 210.461 45.205"/><polygon class="cls-1" points="200.461 45.205 200 45.067 226.467 0 226.928 0.139 200.461 45.205"/><polygon class="cls-1" points="190.461 45.205 190 45.067 216.467 0 216.928 0.139 190.461 45.205"/><polygon class="cls-1" points="180.461 45.205 180 45.067 206.467 0 206.928 0.139 180.461 45.205"/><polygon class="cls-1" points="170.461 45.205 170 45.067 196.467 0 196.928 0.139 170.461 45.205"/><polygon class="cls-1" points="160.461 45.205 160 45.067 186.467 0 186.928 0.139 160.461 45.205"/><polygon class="cls-1" points="150.461 45.205 150 45.067 176.467 0 176.928 0.139 150.461 45.205"/><polygon class="cls-1" points="140.461 45.205 140 45.067 166.467 0 166.928 0.139 140.461 45.205"/><polygon class="cls-1" points="130.461 45.205 130 45.067 156.467 0 156.928 0.139 130.461 45.205"/><polygon class="cls-1" points="120.461 45.205 120 45.067 146.467 0 146.928 0.139 120.461 45.205"/><polygon class="cls-1" points="110.461 45.205 110 45.067 136.467 0 136.928 0.139 110.461 45.205"/><polygon class="cls-1" points="100.461 45.205 100 45.067 126.467 0 126.928 0.139 100.461 45.205"/><polygon class="cls-1" points="90.461 45.205 90 45.067 116.467 0 116.928 0.139 90.461 45.205"/><polygon class="cls-1" points="80.461 45.205 80 45.067 106.467 0 106.928 0.139 80.461 45.205"/><polygon class="cls-1" points="70.461 45.205 70 45.067 96.467 0 96.928 0.139 70.461 45.205"/><polygon class="cls-1" points="60.461 45.205 60 45.067 86.467 0 86.928 0.139 60.461 45.205"/><polygon class="cls-1" points="50.461 45.205 50 45.067 76.467 0 76.928 0.139 50.461 45.205"/><polygon class="cls-1" points="40.461 45.205 40 45.067 66.467 0 66.928 0.139 40.461 45.205"/><polygon class="cls-1" points="30.461 45.205 30 45.067 56.467 0 56.928 0.139 30.461 45.205"/><polygon class="cls-1" points="20.461 45.205 20 45.067 46.467 0 46.928 0.139 20.461 45.205"/><polygon class="cls-1" points="10.461 45.205 10 45.067 36.467 0 36.928 0.139 10.461 45.205"/><polygon class="cls-1" points="0.461 45.205 0 45.067 26.467 0 26.928 0.139 0.461 45.205"/><polygon class="cls-1" points="2600.461 45.205 2600 45.067 2626.467 0 2626.928 0.139 2600.461 45.205"/><polygon class="cls-1" points="2590.461 45.205 2590 45.067 2616.467 0 2616.928 0.139 2590.461 45.205"/><polygon class="cls-1" points="2580.461 45.205 2580 45.067 2606.467 0 2606.928 0.139 2580.461 45.205"/><polygon class="cls-1" points="2570.461 45.205 2570 45.067 2596.467 0 2596.928 0.139 2570.461 45.205"/><polygon class="cls-1" points="2560.461 45.205 2560 45.067 2586.467 0 2586.928 0.139 2560.461 45.205"/><polygon class="cls-1" points="2550.461 45.205 2550 45.067 2576.467 0 2576.928 0.139 2550.461 45.205"/><polygon class="cls-1" points="2540.461 45.205 2540 45.067 2566.467 0 2566.928 0.139 2540.461 45.205"/><polygon class="cls-1" points="2530.461 45.205 2530 45.067 2556.467 0 2556.928 0.139 2530.461 45.205"/><polygon class="cls-1" points="2520.461 45.205 2520 45.067 2546.467 0 2546.928 0.139 2520.461 45.205"/><polygon class="cls-1" points="2510.461 45.205 2510 45.067 2536.467 0 2536.928 0.139 2510.461 45.205"/><polygon class="cls-1" points="2500.461 45.205 2500 45.067 2526.467 0 2526.928 0.139 2500.461 45.205"/><polygon class="cls-1" points="2490.461 45.205 2490 45.067 2516.467 0 2516.928 0.139 2490.461 45.205"/><polygon class="cls-1" points="2480.461 45.205 2480 45.067 2506.467 0 2506.928 0.139 2480.461 45.205"/><polygon class="cls-1" points="2470.461 45.205 2470 45.067 2496.467 0 2496.928 0.139 2470.461 45.205"/><polygon class="cls-1" points="2460.461 45.205 2460 45.067 2486.467 0 2486.928 0.139 2460.461 45.205"/><polygon class="cls-1" points="2450.461 45.205 2450 45.067 2476.467 0 2476.928 0.139 2450.461 45.205"/><polygon class="cls-1" points="2440.461 45.205 2440 45.067 2466.467 0 2466.928 0.139 2440.461 45.205"/><polygon class="cls-1" points="2430.461 45.205 2430 45.067 2456.467 0 2456.928 0.139 2430.461 45.205"/><polygon class="cls-1" points="2420.461 45.205 2420 45.067 2446.467 0 2446.928 0.139 2420.461 45.205"/><polygon class="cls-1" points="2410.461 45.205 2410 45.067 2436.467 0 2436.928 0.139 2410.461 45.205"/><polygon class="cls-1" points="2400.461 45.205 2400 45.067 2426.467 0 2426.928 0.139 2400.461 45.205"/><polygon class="cls-1" points="2390.461 45.205 2390 45.067 2416.467 0 2416.928 0.139 2390.461 45.205"/><polygon class="cls-1" points="2380.461 45.205 2380 45.067 2406.467 0 2406.928 0.139 2380.461 45.205"/><polygon class="cls-1" points="2370.461 45.205 2370 45.067 2396.467 0 2396.928 0.139 2370.461 45.205"/><polygon class="cls-1" points="2360.461 45.205 2360 45.067 2386.467 0 2386.928 0.139 2360.461 45.205"/><polygon class="cls-1" points="2350.461 45.205 2350 45.067 2376.467 0 2376.928 0.139 2350.461 45.205"/><polygon class="cls-1" points="2340.461 45.205 2340 45.067 2366.467 0 2366.928 0.139 2340.461 45.205"/><polygon class="cls-1" points="2330.461 45.205 2330 45.067 2356.467 0 2356.928 0.139 2330.461 45.205"/><polygon class="cls-1" points="2320.461 45.205 2320 45.067 2346.467 0 2346.928 0.139 2320.461 45.205"/><polygon class="cls-1" points="2310.461 45.205 2310 45.067 2336.467 0 2336.928 0.139 2310.461 45.205"/><polygon class="cls-1" points="2300.461 45.205 2300 45.067 2326.467 0 2326.928 0.139 2300.461 45.205"/><polygon class="cls-1" points="2290.461 45.205 2290 45.067 2316.467 0 2316.928 0.139 2290.461 45.205"/><polygon class="cls-1" points="2280.461 45.205 2280 45.067 2306.467 0 2306.928 0.139 2280.461 45.205"/><polygon class="cls-1" points="2270.461 45.205 2270 45.067 2296.467 0 2296.928 0.139 2270.461 45.205"/><polygon class="cls-1" points="2260.461 45.205 2260 45.067 2286.467 0 2286.928 0.139 2260.461 45.205"/><polygon class="cls-1" points="2250.461 45.205 2250 45.067 2276.467 0 2276.928 0.139 2250.461 45.205"/><polygon class="cls-1" points="2240.461 45.205 2240 45.067 2266.467 0 2266.928 0.139 2240.461 45.205"/><polygon class="cls-1" points="2230.461 45.205 2230 45.067 2256.467 0 2256.928 0.139 2230.461 45.205"/><polygon class="cls-1" points="2220.461 45.205 2220 45.067 2246.467 0 2246.928 0.139 2220.461 45.205"/><polygon class="cls-1" points="2210.461 45.205 2210 45.067 2236.467 0 2236.928 0.139 2210.461 45.205"/><polygon class="cls-1" points="2200.461 45.205 2200 45.067 2226.467 0 2226.928 0.139 2200.461 45.205"/><polygon class="cls-1" points="2190.461 45.205 2190 45.067 2216.467 0 2216.928 0.139 2190.461 45.205"/><polygon class="cls-1" points="2180.461 45.205 2180 45.067 2206.467 0 2206.928 0.139 2180.461 45.205"/><polygon class="cls-1" points="2170.461 45.205 2170 45.067 2196.467 0 2196.928 0.139 2170.461 45.205"/><polygon class="cls-1" points="2160.461 45.205 2160 45.067 2186.467 0 2186.928 0.139 2160.461 45.205"/><polygon class="cls-1" points="2150.461 45.205 2150 45.067 2176.467 0 2176.928 0.139 2150.461 45.205"/><polygon class="cls-1" points="2140.461 45.205 2140 45.067 2166.467 0 2166.928 0.139 2140.461 45.205"/><polygon class="cls-1" points="2130.461 45.205 2130 45.067 2156.467 0 2156.928 0.139 2130.461 45.205"/><polygon class="cls-1" points="2120.461 45.205 2120 45.067 2146.467 0 2146.928 0.139 2120.461 45.205"/><polygon class="cls-1" points="2110.461 45.205 2110 45.067 2136.467 0 2136.928 0.139 2110.461 45.205"/><polygon class="cls-1" points="2100.461 45.205 2100 45.067 2126.467 0 2126.928 0.139 2100.461 45.205"/><polygon class="cls-1" points="2090.461 45.205 2090 45.067 2116.467 0 2116.928 0.139 2090.461 45.205"/><polygon class="cls-1" points="2080.461 45.205 2080 45.067 2106.467 0 2106.928 0.139 2080.461 45.205"/><polygon class="cls-1" points="2070.461 45.205 2070 45.067 2096.467 0 2096.928 0.139 2070.461 45.205"/><polygon class="cls-1" points="2060.461 45.205 2060 45.067 2086.467 0 2086.928 0.139 2060.461 45.205"/><polygon class="cls-1" points="2050.461 45.205 2050 45.067 2076.467 0 2076.928 0.139 2050.461 45.205"/><polygon class="cls-1" points="2040.461 45.205 2040 45.067 2066.467 0 2066.928 0.139 2040.461 45.205"/><polygon class="cls-1" points="2030.461 45.205 2030 45.067 2056.467 0 2056.928 0.139 2030.461 45.205"/><polygon class="cls-1" points="2020.461 45.205 2020 45.067 2046.467 0 2046.928 0.139 2020.461 45.205"/><polygon class="cls-1" points="2010.461 45.205 2010 45.067 2036.467 0 2036.928 0.139 2010.461 45.205"/><polygon class="cls-1" points="2000.461 45.205 2000 45.067 2026.467 0 2026.928 0.139 2000.461 45.205"/><polygon class="cls-1" points="1990.461 45.205 1990 45.067 2016.467 0 2016.928 0.139 1990.461 45.205"/><polygon class="cls-1" points="1980.461 45.205 1980 45.067 2006.467 0 2006.928 0.139 1980.461 45.205"/><polygon class="cls-1" points="1970.461 45.205 1970 45.067 1996.467 0 1996.928 0.139 1970.461 45.205"/><polygon class="cls-1" points="1960.461 45.205 1960 45.067 1986.467 0 1986.928 0.139 1960.461 45.205"/><polygon class="cls-1" points="1950.461 45.205 1950 45.067 1976.467 0 1976.928 0.139 1950.461 45.205"/><polygon class="cls-1" points="1940.461 45.205 1940 45.067 1966.467 0 1966.928 0.139 1940.461 45.205"/><polygon class="cls-1" points="1930.461 45.205 1930 45.067 1956.467 0 1956.928 0.139 1930.461 45.205"/><polygon class="cls-1" points="1920.461 45.205 1920 45.067 1946.467 0 1946.928 0.139 1920.461 45.205"/><polygon class="cls-1" points="1910.461 45.205 1910 45.067 1936.467 0 1936.928 0.139 1910.461 45.205"/><polygon class="cls-1" points="1900.461 45.205 1900 45.067 1926.467 0 1926.928 0.139 1900.461 45.205"/><polygon class="cls-1" points="1890.461 45.205 1890 45.067 1916.467 0 1916.928 0.139 1890.461 45.205"/><polygon class="cls-1" points="1880.461 45.205 1880 45.067 1906.467 0 1906.928 0.139 1880.461 45.205"/><polygon class="cls-1" points="1870.461 45.205 1870 45.067 1896.467 0 1896.928 0.139 1870.461 45.205"/><polygon class="cls-1" points="1860.461 45.205 1860 45.067 1886.467 0 1886.928 0.139 1860.461 45.205"/><polygon class="cls-1" points="1850.461 45.205 1850 45.067 1876.467 0 1876.928 0.139 1850.461 45.205"/><polygon class="cls-1" points="1840.461 45.205 1840 45.067 1866.467 0 1866.928 0.139 1840.461 45.205"/><polygon class="cls-1" points="1830.461 45.205 1830 45.067 1856.467 0 1856.928 0.139 1830.461 45.205"/><polygon class="cls-1" points="1820.461 45.205 1820 45.067 1846.467 0 1846.928 0.139 1820.461 45.205"/><polygon class="cls-1" points="1810.461 45.205 1810 45.067 1836.467 0 1836.928 0.139 1810.461 45.205"/><polygon class="cls-1" points="1800.461 45.205 1800 45.067 1826.467 0 1826.928 0.139 1800.461 45.205"/><polygon class="cls-1" points="1790.461 45.205 1790 45.067 1816.467 0 1816.928 0.139 1790.461 45.205"/><polygon class="cls-1" points="1780.461 45.205 1780 45.067 1806.467 0 1806.928 0.139 1780.461 45.205"/><polygon class="cls-1" points="1770.461 45.205 1770 45.067 1796.467 0 1796.928 0.139 1770.461 45.205"/><polygon class="cls-1" points="1760.461 45.205 1760 45.067 1786.467 0 1786.928 0.139 1760.461 45.205"/><polygon class="cls-1" points="1750.461 45.205 1750 45.067 1776.467 0 1776.928 0.139 1750.461 45.205"/><polygon class="cls-1" points="1740.461 45.205 1740 45.067 1766.467 0 1766.928 0.139 1740.461 45.205"/><polygon class="cls-1" points="1730.461 45.205 1730 45.067 1756.467 0 1756.928 0.139 1730.461 45.205"/><polygon class="cls-1" points="1720.461 45.205 1720 45.067 1746.467 0 1746.928 0.139 1720.461 45.205"/><polygon class="cls-1" points="1710.461 45.205 1710 45.067 1736.467 0 1736.928 0.139 1710.461 45.205"/><polygon class="cls-1" points="1700.461 45.205 1700 45.067 1726.467 0 1726.928 0.139 1700.461 45.205"/><polygon class="cls-1" points="1690.461 45.205 1690 45.067 1716.467 0 1716.928 0.139 1690.461 45.205"/><polygon class="cls-1" points="1680.461 45.205 1680 45.067 1706.467 0 1706.928 0.139 1680.461 45.205"/><polygon class="cls-1" points="1670.461 45.205 1670 45.067 1696.467 0 1696.928 0.139 1670.461 45.205"/><polygon class="cls-1" points="1660.461 45.205 1660 45.067 1686.467 0 1686.928 0.139 1660.461 45.205"/><polygon class="cls-1" points="1650.461 45.205 1650 45.067 1676.467 0 1676.928 0.139 1650.461 45.205"/><polygon class="cls-1" points="1640.461 45.205 1640 45.067 1666.467 0 1666.928 0.139 1640.461 45.205"/><polygon class="cls-1" points="1630.461 45.205 1630 45.067 1656.467 0 1656.928 0.139 1630.461 45.205"/><polygon class="cls-1" points="1620.461 45.205 1620 45.067 1646.467 0 1646.928 0.139 1620.461 45.205"/><polygon class="cls-1" points="1610.461 45.205 1610 45.067 1636.467 0 1636.928 0.139 1610.461 45.205"/><polygon class="cls-1" points="1600.461 45.205 1600 45.067 1626.467 0 1626.928 0.139 1600.461 45.205"/><polygon class="cls-1" points="1590.461 45.205 1590 45.067 1616.467 0 1616.928 0.139 1590.461 45.205"/><polygon class="cls-1" points="1580.461 45.205 1580 45.067 1606.467 0 1606.928 0.139 1580.461 45.205"/><polygon class="cls-1" points="1570.461 45.205 1570 45.067 1596.467 0 1596.928 0.139 1570.461 45.205"/><polygon class="cls-1" points="1560.461 45.205 1560 45.067 1586.467 0 1586.928 0.139 1560.461 45.205"/><polygon class="cls-1" points="1550.461 45.205 1550 45.067 1576.467 0 1576.928 0.139 1550.461 45.205"/><polygon class="cls-1" points="1540.461 45.205 1540 45.067 1566.467 0 1566.928 0.139 1540.461 45.205"/><polygon class="cls-1" points="1530.461 45.205 1530 45.067 1556.467 0 1556.928 0.139 1530.461 45.205"/><polygon class="cls-1" points="1520.461 45.205 1520 45.067 1546.467 0 1546.928 0.139 1520.461 45.205"/><polygon class="cls-1" points="1510.461 45.205 1510 45.067 1536.467 0 1536.928 0.139 1510.461 45.205"/><polygon class="cls-1" points="1500.461 45.205 1500 45.067 1526.467 0 1526.928 0.139 1500.461 45.205"/><polygon class="cls-1" points="1490.461 45.205 1490 45.067 1516.467 0 1516.928 0.139 1490.461 45.205"/><polygon class="cls-1" points="1480.461 45.205 1480 45.067 1506.467 0 1506.928 0.139 1480.461 45.205"/><polygon class="cls-1" points="1470.461 45.205 1470 45.067 1496.467 0 1496.928 0.139 1470.461 45.205"/><polygon class="cls-1" points="1460.461 45.205 1460 45.067 1486.467 0 1486.928 0.139 1460.461 45.205"/><polygon class="cls-1" points="1450.461 45.205 1450 45.067 1476.467 0 1476.928 0.139 1450.461 45.205"/><polygon class="cls-1" points="1440.461 45.205 1440 45.067 1466.467 0 1466.928 0.139 1440.461 45.205"/><polygon class="cls-1" points="1430.461 45.205 1430 45.067 1456.467 0 1456.928 0.139 1430.461 45.205"/><polygon class="cls-1" points="1420.461 45.205 1420 45.067 1446.467 0 1446.928 0.139 1420.461 45.205"/><polygon class="cls-1" points="1410.461 45.205 1410 45.067 1436.467 0 1436.928 0.139 1410.461 45.205"/><polygon class="cls-1" points="1400.461 45.205 1400 45.067 1426.467 0 1426.928 0.139 1400.461 45.205"/><polygon class="cls-1" points="1390.461 45.205 1390 45.067 1416.467 0 1416.928 0.139 1390.461 45.205"/><polygon class="cls-1" points="1380.461 45.205 1380 45.067 1406.467 0 1406.928 0.139 1380.461 45.205"/><polygon class="cls-1" points="1370.461 45.205 1370 45.067 1396.467 0 1396.928 0.139 1370.461 45.205"/><polygon class="cls-1" points="1360.461 45.205 1360 45.067 1386.467 0 1386.928 0.139 1360.461 45.205"/><polygon class="cls-1" points="1350.461 45.205 1350 45.067 1376.467 0 1376.928 0.139 1350.461 45.205"/><polygon class="cls-1" points="1340.461 45.205 1340 45.067 1366.467 0 1366.928 0.139 1340.461 45.205"/><polygon class="cls-1" points="1330.461 45.205 1330 45.067 1356.467 0 1356.928 0.139 1330.461 45.205"/><polygon class="cls-1" points="1320.461 45.205 1320 45.067 1346.467 0 1346.928 0.139 1320.461 45.205"/><polygon class="cls-1" points="1310.461 45.205 1310 45.067 1336.467 0 1336.928 0.139 1310.461 45.205"/><polygon class="cls-1" points="1300.461 45.205 1300 45.067 1326.467 0 1326.928 0.139 1300.461 45.205"/></g></g></svg>