<svg xmlns="http://www.w3.org/2000/svg" width="93.6681" height="5.2026" viewBox="0 0 93.6681 5.2026"><defs><style>.cls-1{fill:none;stroke:#2d1536;stroke-miterlimit:10;stroke-width:0.75px;}</style></defs><title>divider</title><g id="Layer_2" data-name="Layer 2"><g id="Layer_1-2" data-name="Layer 1"><line class="cls-1" x1="90.317" y1="5.0023" x2="93.351" y2="0.2003"/><line class="cls-1" x1="84.317" y1="5.0023" x2="87.351" y2="0.2003"/><line class="cls-1" x1="78.317" y1="5.0023" x2="81.351" y2="0.2003"/><line class="cls-1" x1="72.317" y1="5.0023" x2="75.351" y2="0.2003"/><line class="cls-1" x1="66.317" y1="5.0023" x2="69.351" y2="0.2003"/><line class="cls-1" x1="60.317" y1="5.0023" x2="63.351" y2="0.2003"/><line class="cls-1" x1="54.317" y1="5.0023" x2="57.351" y2="0.2003"/><line class="cls-1" x1="48.317" y1="5.0023" x2="51.351" y2="0.2003"/><line class="cls-1" x1="42.317" y1="5.0023" x2="45.351" y2="0.2003"/><line class="cls-1" x1="36.317" y1="5.0023" x2="39.351" y2="0.2003"/><line class="cls-1" x1="30.317" y1="5.0023" x2="33.351" y2="0.2003"/><line class="cls-1" x1="24.317" y1="5.0023" x2="27.351" y2="0.2003"/><line class="cls-1" x1="18.317" y1="5.0023" x2="21.351" y2="0.2003"/><line class="cls-1" x1="12.317" y1="5.0023" x2="15.351" y2="0.2003"/><line class="cls-1" x1="6.317" y1="5.0023" x2="9.351" y2="0.2003"/><line class="cls-1" x1="0.317" y1="5.0023" x2="3.351" y2="0.2003"/></g></g></svg>