<svg xmlns="http://www.w3.org/2000/svg" width="158.6187" height="70.8435" viewBox="0 0 158.6187 70.8435"><defs><style>.cls-1{fill:#fff;}</style></defs><title>logo_vertical</title><g id="Layer_2" data-name="Layer 2"><g id="Layer_1-2" data-name="Layer 1"><path class="cls-1" d="M16.5485,68.6077a.8669.8669,0,0,1,.8476.9454c0,.9118-.8791,1.01-1.3024,1.01a2.6709,2.6709,0,0,1-2.9659-2.312c-.0326-.1958-.0652-.3253-.1621-.3253-.0326,0-.0653.0326-.13.0979A6.7807,6.7807,0,0,1,7.3962,70.76C3.1617,70.7608.0011,67.7,0,62.9773c-.0011-4.56,3.1574-7.7205,7.3919-7.7216A6.5468,6.5468,0,0,1,12.5392,57.6c.1632.2273.2611.3905.3264.3905s.0979-.1632.0979-.5864c0-1.6614.0316-3.9734.0316-5.8632-.0011-2.2152-.0011-2.769-1.3045-2.769a3.9772,3.9772,0,0,0-.5212.0337h-.0653a.8378.8378,0,0,1-.9117-.8464.9672.9672,0,0,1,1.01-.9781c.3253,0,.7822-.0327,1.0749-.0327,2.052,0,2.6058,1.3024,2.6058,2.7026v.1306c-.0316,2.7363-.0631,8.0131-.062,12.475,0,1.6614.0011,3.16.0011,4.43,0,1.5635.5537,1.9541,1.2707,1.953.1622,0,.2927-.0326.4233-.0326ZM12.9646,62.974c-.0011-3.6481-2.4121-6.0254-5.5063-6.0243-3.29.0011-5.5369,2.2805-5.5358,6.0265C1.9236,66.69,4.203,68.97,7.46,68.9689,10.5221,68.9678,12.9657,66.5894,12.9646,62.974Z"/><path class="cls-1" d="M30.6827,68.377c-.0326-.0979-.0652-.1632-.1294-.1632a.1751.1751,0,0,0-.1306.0979,6.0182,6.0182,0,0,1-4.95,2.51c-3.289,0-5.2779-2.2468-5.2779-4.4946-.0011-1.6287,1.0739-3.29,3.4849-4.04a52.2536,52.2536,0,0,1,6.0253-1.3361c.3906-.0653.5212-.1643.5212-.3917,0-.1632.0326-.3579.0315-.5211,0-1.792-.7485-3.1911-3.3869-3.1911a5.1329,5.1329,0,0,0-3.8113,1.5645.9061.9061,0,0,1-.6843.3253.8825.8825,0,0,1-.9118-.8791c0-1.2381,2.7353-2.6384,5.5358-2.6395,3.03,0,5.0831,1.335,5.0842,4.9831a8.8417,8.8417,0,0,1-.0326.9117c-.098,1.075-.1632,2.7679-.1621,4.006,0,2.3784.2284,3.16,1.5308,3.6155a.8282.8282,0,0,1,.5549.8138.8813.8813,0,0,1-.8792.9117A2.7723,2.7723,0,0,1,30.6827,68.377Zm-.49-4.983v-.4233c0-.2611-.0979-.359-.3253-.359H29.77c-5.1136.816-7.8173,1.4677-7.8162,3.7482,0,1.3676,1.3034,2.7352,3.4849,2.7352C27.1,69.094,30.1942,68.41,30.1931,63.394Z"/><path class="cls-1" d="M41.5269,57.3c-.5212,0-.5212.0652-.5212.4558,0,1.2382-.0968,4.5925-.0968,7.0035.0011,2.54.0663,4.2671,2.6068,4.2661.2927,0,.5865-.0327.9118-.0653h.13a.8081.8081,0,0,1,.7834.8464c0,.8465-.7823,1.01-2.0846,1.0108-4.1692.0011-4.17-3.5491-4.17-4.983-.0011-2.0847.062-6.058.062-7.6541v-.5212c0-.3253-.0968-.3579-.3253-.3579H36.9018a.8647.8647,0,1,1,0-1.7267h1.8887c.2938,0,.358-.0326.3569-.3253,0-.1306.0326-1.694.0326-2.8343v-.8138a.946.946,0,1,1,1.89.0642c0,.9444-.0653,3.55-.0653,3.55.0011.3579.0664.3579.49.3579h2.8985a.8382.8382,0,0,1,.9128.8465.8472.8472,0,0,1-.9128.88Z"/><path class="cls-1" d="M58.9534,68.3705c-.0326-.0979-.0653-.1632-.13-.1632a.1747.1747,0,0,0-.1305.0979,6.0184,6.0184,0,0,1-4.95,2.51c-3.289,0-5.2778-2.2467-5.2778-4.4945-.0011-1.6288,1.0738-3.29,3.4848-4.04a52.2776,52.2776,0,0,1,6.0254-1.336c.3906-.0653.5211-.1632.5211-.3917,0-.1621.0327-.358.0316-.5212,0-1.7908-.7486-3.1911-3.387-3.1911A5.1331,5.1331,0,0,0,51.33,58.4055a.9063.9063,0,0,1-.6844.3253.8825.8825,0,0,1-.9117-.8791c0-1.2382,2.7352-2.6384,5.5357-2.6395,3.03,0,5.0832,1.335,5.0843,4.983a8.8157,8.8157,0,0,1-.0327.9118c-.0979,1.0749-.1632,2.7679-.1621,4.006,0,2.3784.2285,3.16,1.5308,3.6154a.8284.8284,0,0,1,.5549.8139.8812.8812,0,0,1-.8791.9117A2.7721,2.7721,0,0,1,58.9534,68.3705Zm-.49-4.9831v-.4232c0-.2611-.0979-.359-.3253-.359h-.0979c-5.1137.816-7.8173,1.4677-7.8162,3.7481,0,1.3676,1.3034,2.7353,3.4848,2.7353C55.3706,69.0875,58.4649,68.4031,58.4638,63.3874Z"/><path class="cls-1" d="M75.0743,56.0543c-.0326.6844-.0326,1.14-.0326,1.6287,0,.4559,0,.9455.0326,1.6941v.0652a.8015.8015,0,0,1-.8138.7812.8361.8361,0,0,1-.9128-.8464c0-2.6058-2.8985-2.6047-3.0943-2.6047-1.694,0-2.6384,1.0107-2.6384,2.0857a2.5091,2.5091,0,0,0,1.5972,2.1488c.9117.4232,2.4752,1.0738,3.4848,1.595,2.0194,1.0423,2.9006,2.5731,2.9006,4.0387,0,1.7908-1.4329,4.2018-5.1451,4.2029A5.1067,5.1067,0,0,1,67.195,69.77a.4146.4146,0,0,0-.2285-.1306c-.0653,0-.0979.0653-.0979.1632,0,.8138-.3906.9117-.7812.9117a.7853.7853,0,0,1-.8464-.7811v-.0653c.0315-.717.0631-1.2055.0631-1.694s-.0316-.9771-.0642-1.7583V66.35a.8553.8553,0,0,1,.9117-.8476.8358.8358,0,0,1,.8791.8791c0,.2285-.0653.3906-.0653.6191,0,1.0749,1.6288,2.1488,3.486,2.1488,1.66,0,3.2564-.9455,3.2564-2.5089,0-1.7267-1.434-2.5068-5.2126-4.07a3.9368,3.9368,0,0,1-2.6395-3.6154c0-1.8888,1.53-3.7449,4.4292-3.746a5.247,5.247,0,0,1,2.8669.878.24.24,0,0,0,.1959.0653c.1632,0,.13-.2927.1632-.3906a.7325.7325,0,0,1,.7474-.5211.7615.7615,0,0,1,.816.7822Z"/><path class="cls-1" d="M93.3484,70.3822c-.8465-.0326-1.6277-.0642-2.3446-.0642s-1.4329.0326-2.1826.0653h-.0653a.8281.8281,0,0,1-.8791-.8465.763.763,0,0,1,.8781-.8475c.8475,0,.8475-.1959.8475-.2285a.2472.2472,0,0,0-.0653-.1306c-1.7266-1.6929-4.3988-4.1681-5.4084-5.2093a1.1637,1.1637,0,0,0-.9771-.3906c-.4885,0-.5211.2927-.5211,1.9867.0011.7812.0011,1.8235.0337,3.3869a.4979.4979,0,0,0,.5538.5538,8.224,8.224,0,0,0,.9118-.0326h.0326a.8818.8818,0,1,1,.0011,1.7593h-.0327c-.8464-.0327-1.694-.0653-2.54-.0642-.8139,0-1.5961.0326-2.3447.0653a.8421.8421,0,0,1-.9781-.8465.8967.8967,0,0,1,.9444-.9128h.0326c.3906,0,.4559.0326.9771.0326a.5136.5136,0,0,0,.5537-.5538c.0632-3.4207.0958-7.8173.0947-11.7907-.0011-2.28-.0337-4.463-.0348-6.2223,0-.9117-.26-1.27-1.075-1.3023h-.7485A.8886.8886,0,0,1,78.1,47.878c0-.8465.5864-.9444,1.7255-.9444,2.6711-.0011,2.9,1.7256,2.9,2.4415.0011,4.2018-.062,11.1074-.062,11.1074a.4888.4888,0,0,0,.5538.5211c.358,0,.4885-.0326,5.6337-3.5839.0979-.0652.1306-.13.1306-.1632,0-.0652-.0653-.0979-.2285-.0979-.5865,0-1.3676,0-1.3676-.7812a.8288.8288,0,0,1,.8791-.8475h.0652c.8139.0326,1.5309.0326,2.28.0326.7159,0,1.4982-.0011,2.3446-.0337a.7935.7935,0,0,1,.9444.8475.8568.8568,0,0,1-.9117.8465h-.0327c-.4558,0-.1947-.0326-.6517-.0326a1.559,1.559,0,0,0-.8138.2937c-1.9214,1.3035-4.4293,2.9975-6.0243,4.0409-.1958.1294-.2611.2274-.2611.3253,0,.2274.8465,1.01,6.7435,6.4148a1.2053,1.2053,0,0,0,.9443.3906c.1306,0,.2938-.0326.4886-.0326a.8057.8057,0,0,1,.9128.8465.87.87,0,0,1-.9118.9128Z"/><path class="cls-1" d="M104.1283,70.8033c-4.1366.001-7.3625-3.0932-7.3636-7.6857-.0011-4.7556,3.4185-7.8826,7.2614-7.8837,4.4629-.001,6.4181,3.4838,6.4192,5.34,0,1.2055-.7159,2.1172-2.3773,2.1836-.75.0326-1.8572.0326-3.0617.0326-2.4436.0011-5.2115-.0315-5.9285-.0315-.3253.0011-.3906.13-.3906.5864.0011,3.5512,2.3458,5.7327,5.4727,5.7316a5.8355,5.8355,0,0,0,4.723-2.151.9243.9243,0,0,1,.6517-.2927.9957.9957,0,0,1,.977.9444C110.5116,68.3259,108.2323,70.8022,104.1283,70.8033ZM104.06,56.8616c-3.1269.0011-5.1136,2.8027-5.1125,4.0082,0,.3253.2937.3253,4.0713.3253,1.694-.0011,3.5186-.0011,4.43-.0337.7812-.0327,1.075-.3917,1.075-.9129C108.5228,59.3042,107.3825,56.8616,104.06,56.8616Z"/><path class="cls-1" d="M118.4889,57.2827c-.5212,0-.5212.0652-.5212.4558,0,1.2371-.0968,4.5925-.0968,7.0024.0011,2.5405.0663,4.2672,2.6068,4.2672.2927,0,.5865-.0327.9118-.0653h.13a.8071.8071,0,0,1,.7823.8464c0,.8465-.7812,1.01-2.0846,1.01-4.1692.0011-4.17-3.5491-4.17-4.982-.0011-2.0846.0631-6.059.0631-7.6551v-.5212c0-.3253-.0968-.3579-.3253-.3579l-1.9214.001a.8647.8647,0,1,1,0-1.7266l1.8887-.0011c.2927,0,.358-.0326.3569-.3253,0-.1306.0326-1.694.0326-2.8343v-.8138a.946.946,0,1,1,1.89.0642c0,.9455-.0653,3.5512-.0653,3.5512.0011.358.0664.358.49.358l2.8985-.0011a.8647.8647,0,1,1,0,1.7267Z"/><path class="cls-1" d="M133.0518,70.7641a7.4043,7.4043,0,0,1-7.6574-7.6857c-.0011-4.56,3.2227-7.98,7.3266-7.9815a7.51,7.51,0,0,1,3.6818.9759c.0653.0326.0979.0653.1632.0653.0979,0,.1306-.1959.1632-.358.0327-.3917.4222-.5538.78-.5538a.841.841,0,0,1,.9455.8139v.0652c-.0316.6844-.0316,1.1729-.0316,1.6941,0,.4885,0,1.01.0316,1.7582v.0652a.8394.8394,0,0,1-.9433.815.8625.8625,0,0,1-.9128-.7812c-.0327-.6844.0652-1.0761-.3254-1.5319a4.28,4.28,0,0,0-3.3227-1.3339c-3.1922,0-5.6674,2.5416-5.6663,6.157.0011,2.9637,1.9225,6.058,5.6685,6.0569a5.126,5.126,0,0,0,4.1692-1.89,1.0241,1.0241,0,0,1,.8465-.4885,1.0433,1.0433,0,0,1,1.0423,1.01C139.0108,68.5805,136.5693,70.763,133.0518,70.7641Z"/><path class="cls-1" d="M157.6428,70.3681c-.8476-.0327-1.694-.0653-2.5416-.0653-.8138,0-1.595.0326-2.3446.0663a.8422.8422,0,0,1-.977-.8475.8955.8955,0,0,1,.9432-.9118h.0327c.4232,0,.4559.0327.977.0316a.5049.5049,0,0,0,.5212-.5538c0-1.0749.0326-2.312.0315-3.5175,0-1.694-.0326-3.2248-.0653-3.8439-.1642-2.7026-1.89-3.8428-3.747-3.8418-2.2794,0-4.7557,1.6952-4.8514,4.2683,0,.618-.0327,1.5961-.0327,2.7679.0011,1.2055.0337,2.6384.0337,4.1692a.4974.4974,0,0,0,.5538.5538,8.198,8.198,0,0,0,.9118-.0327.8832.8832,0,1,1,.0337,1.7593h-.0326c-.8476-.0326-1.7267-.0652-2.5405-.0652s-1.6288.0337-2.3784.0663a.8421.8421,0,0,1-.977-.8464.8958.8958,0,0,1,.9433-.9129h.0326c.4233,0,.5212.0327,1.0423.0327a.4894.4894,0,0,0,.5212-.5538c.0326-2.6395.0642-6.7435.0631-10.6516-.0011-2.7689-.0337-5.4073-.0348-7.3614,0-.8465-.26-1.3023-1.1076-1.335a6.2922,6.2922,0,0,0-.7159.0327h-.0327a.8886.8886,0,0,1-.9117-.9118c0-.5538.26-.977,1.66-.977a7.0761,7.0761,0,0,1,.8149.0642,2.2715,2.2715,0,0,1,2.2141,2.4752q0,.88.0011,1.8572c0,2.6384-.0305,5.5695-.0305,6.0254,0,.0979.0316.1632.0642.1632s.0653-.0327.1306-.098a6.1,6.1,0,0,1,4.82-2.2162,5.1585,5.1585,0,0,1,5.4411,5.21c.0327,1.3676.0664,5.1136.0664,7.6868,0,.3579.1632.5864.5538.5864.4885,0,.4558-.0326.9128-.0326h.0326a.8818.8818,0,1,1,.0011,1.7593Z"/><path class="cls-1" d="M109.3169,26.7017l-10.3-6.9884V3.2573A3.261,3.261,0,0,0,95.7591,0h-29.78a3.261,3.261,0,0,0-3.2573,3.2573V24.9212a3.261,3.261,0,0,0,3.2573,3.2573H80.0426l-5.3054,5.3394a.8081.8081,0,0,0,1.1464,1.1391L80.869,29.64l4.9853,5.0174a.8081.8081,0,1,0,1.1464-1.1391L81.6966,28.18v-.0013H95.7591a3.261,3.261,0,0,0,3.2573-3.2573V21.6663l9.3932,6.3728a.8081.8081,0,0,0,.9073-1.3374ZM97.4,18.6169l-5.5251-3.7486a.8081.8081,0,0,0-.9074,1.3374L97.4,20.57v4.3514a1.6431,1.6431,0,0,1-1.6412,1.6412h-29.78a1.6431,1.6431,0,0,1-1.6412-1.6412V3.2573a1.643,1.643,0,0,1,1.6412-1.6412h29.78A1.643,1.643,0,0,1,97.4,3.2573Z"/></g></g></svg>