<svg xmlns="http://www.w3.org/2000/svg" width="20.0459" height="15.083" viewBox="0 0 20.0459 15.083"><defs><style>.cls-1{fill:#e515aa;}</style></defs><title>mail</title><g id="Layer_2" data-name="Layer 2"><g id="Layer_1-2" data-name="Layer 1"><path class="cls-1" d="M20.0409.7253a.7442.7442,0,0,0-.05-.2575L19.9877.4619c-.0033-.008-.0094-.014-.013-.0218a.7459.7459,0,0,0-.132-.196c-.0176-.0189-.037-.0341-.0563-.0512a.7393.7393,0,0,0-.1575-.1062A.7011.7011,0,0,0,19.2959,0H.75A.7435.7435,0,0,0,.4873.053a.7437.7437,0,0,0-.07.0337A.7393.7393,0,0,0,.26.1929C.24.21.2208.2252.2032.2441A.7459.7459,0,0,0,.0712.44C.0676.4479.0615.4539.0582.4619L.0547.4678a.7442.7442,0,0,0-.05.2575C.0046.734,0,.7413,0,.75V14.333a.75.75,0,0,0,.75.75H19.2959a.75.75,0,0,0,.75-.75V.75C20.0459.7413,20.0413.734,20.0409.7253ZM7.259,8.13l2.24,2.1793a.7512.7512,0,0,0,1.0469,0l2.2406-2.18,5.5668,5.4536H1.6926ZM1.5,11.6729V2.5266L6.1842,7.084ZM13.8613,7.0837l4.6846-4.5573v9.1465ZM17.4492,1.5,10.0225,8.7251,2.5967,1.5Z"/></g></g></svg>