<svg xmlns="http://www.w3.org/2000/svg" width="19.29" height="15.7675" viewBox="0 0 19.29 15.7675"><defs><style>.cls-1{fill:#e515aa;}</style></defs><title>twitter</title><g id="Layer_2" data-name="Layer 2"><g id="Layer_1-2" data-name="Layer 1"><path class="cls-1" d="M18.7517.4227c-.7039.2537-1.3907.498-2.0748.75a.5858.5858,0,0,1-.6616-.1546,3.9694,3.9694,0,0,0-6.5683,3.57,2.333,2.333,0,0,1,.0018.31A11.46,11.46,0,0,1,1.2567.7245a4.0994,4.0994,0,0,0,1.18,5.3032l-.0575.0735L.7,5.6335A4.2355,4.2355,0,0,0,3.7918,9.5848H2.1052a4.1026,4.1026,0,0,0,3.7119,2.77A8.1708,8.1708,0,0,1,0,14.0127c.1548.1014.2111.1417.2705.1767a11.095,11.095,0,0,0,5.1017,1.5565,10.7959,10.7959,0,0,0,6.1819-1.3545,11.2984,11.2984,0,0,0,5.8009-10.08.7055.7055,0,0,1,.2951-.6205,7.1389,7.1389,0,0,0,1.64-1.768c-.3863.1282-.7151.2537-1.053.3449-.34.0918-.69.15-1.0359.2222A4.596,4.596,0,0,0,18.7517.4227Z"/></g></g></svg>